<?xml version="1.0" standalone="no"?>
<!DOCTYPE svg PUBLIC "-//W3C//DTD SVG 1.1//EN" "http://www.w3.org/Graphics/SVG/1.1/DTD/svg11.dtd" >
<!--
2013-9-30: Created.
-->
<svg>
<metadata>
Created by iconfont
</metadata>
<defs>

<font id="iconfont" horiz-adv-x="1024" >
  <font-face
    font-family="iconfont"
    font-weight="500"
    font-stretch="normal"
    units-per-em="1024"
    ascent="896"
    descent="-128"
  />
    <missing-glyph />
    
    <glyph glyph-name="yasuo" unicode="&#58900;" d="M97.9 520h828.4v-269.2H97.9zM926.3 520V734.5c0 26.6-23.8 50.3-52.1 50.3H149.9c-28.3 0-52.1-23.7-52.1-50.3V520h828.5z m0 0M97.9 250.8v-214.5c0-26.6 23.6-50.3 51.7-50.3h725c28.1 0 51.7 23.7 51.7 50.3V250.8H97.9z m0 0M421.8 784.8h184.9V-14H421.8zM606.7 438.6v-112.4H413V438.6h193.7m31.1 45.9H381.9c-4.4 0-11.8-4.4-11.8-11.8v-179c0-4.4 4.4-11.8 11.8-11.8h255.9c4.4 0 11.8 4.4 11.8 11.8v179c-2.9 8.8-7.4 11.8-11.8 11.8z m0 0"  horiz-adv-x="1024" />

    
    <glyph glyph-name="zhuxiao" unicode="&#58924;" d="M512 262.436571a27.428571 27.428571 0 0 0-27.428571 27.428572V861.257143a27.428571 27.428571 0 0 0 54.857142 0v-571.392A27.428571 27.428571 0 0 0 512 262.436571z m0-383.195428A504.246857 504.246857 0 0 0 284.525714 833.536a27.428571 27.428571 0 0 0 24.868572-48.932571 449.316571 449.316571 0 1 1 402.285714 1.462857 27.428571 27.428571 0 1 0 24.356571 49.152A504.173714 504.173714 0 0 0 512-120.685714z"  horiz-adv-x="1024" />

    
    <glyph glyph-name="beijujue" unicode="&#58915;" d="M662.588235 112.941176v30.117648c0 84.329412-66.258824 150.588235-150.588235 150.588235S361.411765 227.388235 361.411765 143.058824v-30.117648H301.176471v30.117648C301.176471 257.505882 397.552941 353.882353 512 353.882353s210.823529-96.376471 210.823529-210.823529v-30.117648h-60.235294zM512 896C795.105882 896 1024 667.105882 1024 384S795.105882-128 512-128 0 100.894118 0 384 228.894118 896 512 896z m0-60.235294C265.035294 835.764706 60.235294 630.964706 60.235294 384S265.035294-67.764706 512-67.764706 963.764706 137.035294 963.764706 384 758.964706 835.764706 512 835.764706zM602.352941 474.352941V594.823529h60.235294v-120.470588h-60.235294zM361.411765 474.352941V594.823529h60.235294v-120.470588H361.411765z"  horiz-adv-x="1024" />

    
    <glyph glyph-name="shenqingjihua" unicode="&#58916;" d="M551.384615 141.154462L354.461538 331.460923l45.922462 46.001231 144.462769-144.462769 275.692308 275.692307L866.461538 462.769231 551.384615 141.154462z m-262.537846 610.461538h590.769231V882.845538H945.230769v-131.229538h196.923077v-853.385846H26.230154V751.616h196.923077V882.845538h65.693538v-131.229538z m-196.923077-65.693538v-721.99877h984.615385V685.922462h-984.615385z"  horiz-adv-x="1181" />

    
    <glyph glyph-name="shangchuan" unicode="&#58917;" d="M109.511111 222.833778h96.711111c24.177778 0 40.277333 16.099556 40.277334 40.277333s-16.099556 40.277333-40.277334 40.277333h-96.711111c-32.256 0-48.355556 0-64.455111-8.021333a62.919111 62.919111 0 0 1-32.256-32.256c-8.078222-16.099556-8.078222-24.177778-8.078222-64.455111v-193.422222c0-32.256 0-48.355556 8.078222-64.512 8.078222-16.099556 16.099556-24.177778 32.256-32.199111 16.099556-8.078222 24.177778-8.078222 64.455111-8.078223h918.755556c32.256 0 48.355556 0 64.455111 8.078223 16.156444 8.021333 24.177778 16.099556 32.256 32.199111 8.078222 16.156444 8.078222 24.177778 8.078222 64.512v193.422222c0 32.199111 0 48.355556-8.078222 64.455111a62.919111 62.919111 0 0 1-32.256 32.256c-16.099556 8.021333-24.177778 8.021333-64.455111 8.021333h-96.711111c-24.177778 0-40.277333-16.099556-40.277334-40.277333s16.099556-40.277333 40.277334-40.277333H1052.444444v-241.777778h-967.111111v241.777778h24.177778z m499.655111 507.733333l161.223111-161.223111a38.968889 38.968889 0 0 1 56.376889 0 38.968889 38.968889 0 0 1 0 56.433778L601.144889 851.456a38.968889 38.968889 0 0 1-56.433778 0L311.011556 625.777778a38.968889 38.968889 0 0 1 0-56.433778 38.968889 38.968889 0 0 1 56.376888 0l161.223112 161.223111v-531.911111c0-24.177778 16.099556-40.334222 40.277333-40.334222s40.277333 16.156444 40.277333 40.334222v531.911111z"  horiz-adv-x="1137" />

    
    <glyph glyph-name="shenqingjiezhishijian" unicode="&#58918;" d="M507.000471-87.823059A426.285176 426.285176 0 0 0 80.293647 338.823529a426.285176 426.285176 0 0 0 426.706824 426.646589A426.285176 426.285176 0 0 0 933.647059 338.823529a426.285176 426.285176 0 0 0-426.646588-426.646588z m0 50.176c205.763765 0 376.470588 170.646588 376.470588 376.470588S712.764235 715.294118 507.000471 715.294118C301.176471 715.294118 130.529882 544.647529 130.529882 338.823529S301.176471-37.647059 507.000471-37.647059zM632.470588 865.882353v-50.176H381.470118V865.882353H632.470588z m65.234824-301.176471l35.177412-35.117176L527.058824 323.764706l-35.117177 35.117176L697.705412 564.705882z"  horiz-adv-x="1024" />

    
    <glyph glyph-name="tianjiacailiao" unicode="&#58919;" d="M829.553778 885.105778c35.84-0.597333 63.118222-31.004444 63.118222-66.673778v-408.462222H812.657778V805.12H126.008889v-841.187556l351.032889 0.056889v-80.014222l-366.819556-0.056889h-1.080889c-35.84 0.625778-63.146667 31.032889-63.146666 66.673778V819.512889C46.563556 855.068444 74.24 885.105778 110.222222 885.105778h719.331556z m-33.564445-574.435556v-171.121778H967.111111v-82.204444h-171.121778V-113.777778h-82.204444v171.121778h-171.121778v82.204444h171.121778v171.121778h82.204444zM744.448 672.426667v-89.088H194.446222V672.426667z"  horiz-adv-x="1024" />

    
    <glyph glyph-name="defer" unicode="&#58920;" d="M633.904762-59.733333V-128l-97.52381 97.52381-48.761904 48.761904h24.380952c199.92381 0 365.714286 165.790476 365.714286 365.714286 0 165.790476-107.27619 302.32381-258.438096 351.085714L555.885714 798.47619c209.67619-24.380952 370.590476-199.92381 370.590476-409.6 0-199.92381-141.409524-365.714286-331.580952-404.723809l39.009524-43.885714zM390.095238 827.733333V896l97.52381-97.52381 48.761904-48.761904h-24.380952C312.07619 749.714286 146.285714 588.8 146.285714 384c0-160.914286 107.27619-302.32381 253.561905-346.209524l63.390476-63.390476c-204.8 24.380952-365.714286 195.047619-365.714285 409.6C97.52381 583.92381 238.933333 749.714286 429.104762 788.72381L390.095238 827.733333z"  horiz-adv-x="1024" />

    
    <glyph glyph-name="yiluqu" unicode="&#58921;" d="M722.823529 353.882353v-30.117647c0-114.447059-96.376471-210.823529-210.823529-210.82353S301.176471 209.317647 301.176471 323.764706V353.882353h60.235294v-30.117647C361.411765 239.435294 427.670588 173.176471 512 173.176471S662.588235 239.435294 662.588235 323.764706V353.882353h60.235294z m-210.823529-481.882353C228.894118-128 0 100.894118 0 384S228.894118 896 512 896 1024 667.105882 1024 384 795.105882-128 512-128z m0 60.235294c246.964706 0 451.764706 204.8 451.764706 451.764706S758.964706 835.764706 512 835.764706 60.235294 630.964706 60.235294 384 265.035294-67.764706 512-67.764706zM421.647059 594.823529v-120.470588H361.411765V594.823529h60.235294z m240.941176 0v-120.470588h-60.235294V594.823529h60.235294z"  horiz-adv-x="1024" />

    
    <glyph glyph-name="pdf" unicode="&#58922;" d="M870.4-128H153.6a51.2 51.2 0 0 0-51.2 51.2V844.8a51.2 51.2 0 0 0 51.2 51.2h569.6768c11.264 0 22.0416-4.4032 30.0544-12.288l155.9808-155.9808c7.8848-8.0128 12.288-18.816 12.288-30.0544V-76.8a51.2 51.2 0 0 0-51.2-51.2zM153.6 861.8752A17.0752 17.0752 0 0 1 136.5248 844.8v-921.6c0-9.4208 7.6544-17.0752 17.0752-17.0752h716.8a17.0752 17.0752 0 0 1 17.0752 17.0752V697.6768a7.168 7.168 0 0 1-2.4064 5.8112L729.088 859.4688a7.168 7.168 0 0 1-5.8112 2.4064H153.6zM904.5248 691.2h-170.6496A17.0752 17.0752 0 0 0 716.8 708.2752V878.9248h34.1248v-153.6h153.6V691.2zM204.8 725.3248h443.7248V691.2H204.8V725.3248zM204.8 588.8h614.4v-34.1248H204.8V588.8z m0-136.5248h614.4v-34.1504H204.8v34.1504z m0-136.5504h614.4V281.6H204.8v34.1248z m0-273.0496h614.4v-34.1504H204.8v34.1504zM204.8 179.2h614.4v-34.1248H204.8V179.2zM68.2752 435.2h887.4496c11.392 0 17.0752-5.6832 17.0752-17.0752v-273.0496c0-11.392-5.6832-17.0752-17.0752-17.0752H68.2752C56.8832 128 51.2 133.6832 51.2 145.0752V418.1248c0 11.392 5.6832 17.0752 17.0752 17.0752zM955.7248 418.1248v-273.0496H68.2752V418.1248h887.4496m0 34.1504H68.2752a34.1248 34.1248 0 0 1-34.1504-34.1504v-273.0496a34.1248 34.1248 0 0 1 34.1504-34.1504h887.4496a34.1248 34.1248 0 0 1 34.1504 34.1504V418.1248a34.1248 34.1248 0 0 1-34.1504 34.1504zM348.16 365.9008a55.9872 55.9872 0 1 0 0-111.616H307.2v-56.9856h-24.9088v168.6016H348.16zM307.2 277.1712h34.1248c22.528 0 35.84 11.5968 35.84 32.4096 0 20.8384-12.9536 34.1504-35.84 34.1504H307.2v-66.56z m202.752 88.7296A74.4192 74.4192 0 0 0 589.1328 281.6a75.0848 75.0848 0 0 0-79.1808-84.992h-60.7488v169.2928h60.7488z m-34.1248-144.7168h31.744a52.9152 52.9152 0 0 1 55.296 60.416 53.248 53.248 0 0 1-55.6544 60.0832h-31.744l0.3584-120.4992z m160.768-23.8848v168.6016h105.1136v-23.8848h-78.848v-51.8912h72.0384v-22.8608h-72.0384v-68.2752l-26.2656-1.6896z"  horiz-adv-x="1024" />

    
    <glyph glyph-name="wait" unicode="&#58923;" d="M608.376471 353.882353L602.352941 655.058824h60.235294v-271.058824l192.752941-192.752941-42.164705-42.164706L608.376471 353.882353zM84.329412 534.588235l48.188235-48.188235C180.705882 721.317647 385.505882 896 632.470588 896 915.576471 896 1144.470588 667.105882 1144.470588 384S915.576471-128 632.470588-128c-265.035294 0-481.882353 198.776471-505.97647 457.788235l78.305882-78.305882c54.211765-186.729412 228.894118-319.247059 433.694118-319.247059 246.964706 0 451.764706 204.8 451.764706 451.764706S879.435294 835.764706 632.470588 835.764706 180.705882 630.964706 180.705882 384V353.882353L120.470588 414.117647 0 534.588235h84.329412z"  horiz-adv-x="1144" />

    
    <glyph glyph-name="hanjinliangxingxing2" unicode="&#58895;" d="M501.632 894.208l11.008 0.768 8.96-0.768 12.416-3.2 9.856-4.736 8.704-6.144 8.192-8.192 6.656-9.472 134.656-238.848 275.584-79.872a64 64 0 0 0 37.632-93.44l-6.528-9.344-191.104-226.176 34.56-269.568a64 64 0 0 0-80.384-69.888l-9.856 3.584-250.368 114.816-250.368-114.816a64 64 0 0 0-90.624 55.808l0.512 10.496 34.304 269.568L14.592 440.96a64 64 0 0 0 20.48 98.688l10.496 4.096 275.456 79.872L455.936 862.464l3.072 4.992 3.712 4.736 7.68 7.68 8.96 6.4 11.392 5.12 10.88 2.816z m9.984-193.28l-92.032-163.072a64 64 0 0 0-28.544-26.496l-9.344-3.456-205.824-59.648 145.664-172.416a64 64 0 0 0 14.976-38.784l-0.384-10.624-23.424-183.168 172.288 78.848a64 64 0 0 0 42.88 3.84l10.368-3.84 172.288-78.848-23.296 183.168a64 64 0 0 0 8.448 40.704l6.144 8.704 145.408 172.416-205.696 59.648a64 64 0 0 0-32.256 21.76l-5.632 8.192-92.032 163.072z"  horiz-adv-x="1024" />

    
    <glyph glyph-name="tuijianzhishuxingxing2" unicode="&#58897;" d="M501.632 894.208l11.008 0.768 8.96-0.768 12.416-3.2 9.856-4.736 8.704-6.144 8.192-8.192 6.656-9.472 134.656-238.848 275.584-79.872a64 64 0 0 0 37.632-93.44l-6.528-9.344-191.104-226.176 34.56-269.568a64 64 0 0 0-80.384-69.888l-9.856 3.584-250.368 114.816-250.368-114.816a64 64 0 0 0-90.624 55.808l0.512 10.496 34.304 269.568L14.592 440.96a64 64 0 0 0 20.48 98.688l10.496 4.096 275.456 79.872L455.936 862.464l3.072 4.992 3.712 4.736 7.68 7.68 8.96 6.4 11.392 5.12 10.88 2.816z m9.984-193.28l-92.032-163.072a64 64 0 0 0-28.544-26.496l-9.344-3.456-205.824-59.648 145.664-172.416a64 64 0 0 0 14.976-38.784l-0.384-10.624-23.424-183.168 172.288 78.848a64 64 0 0 0 42.88 3.84l10.368-3.84 172.288-78.848-23.296 183.168a64 64 0 0 0 8.448 40.704l6.144 8.704 145.408 172.416-205.696 59.648a64 64 0 0 0-32.256 21.76l-5.632 8.192-92.032 163.072z"  horiz-adv-x="1024" />

    
    <glyph glyph-name="tuijianzhishuxingxing1" unicode="&#58898;" d="M501.632 894.208l11.008 0.768 8.96-0.768 12.416-3.2 9.856-4.736 8.704-6.144 8.192-8.192 6.656-9.472 134.656-238.848 275.584-79.872a64 64 0 0 0 37.632-93.44l-6.528-9.344-191.104-226.176 34.56-269.568a64 64 0 0 0-80.384-69.888l-9.856 3.584-250.368 114.816-250.368-114.816a64 64 0 0 0-90.624 55.808l0.512 10.496 34.304 269.568L14.592 440.96a64 64 0 0 0 20.48 98.688l10.496 4.096 275.456 79.872L455.936 862.464l3.072 4.992 3.712 4.736 7.68 7.68 8.96 6.4 11.392 5.12 10.88 2.816z"  horiz-adv-x="1024" />

    
    <glyph glyph-name="hanjinliangxingxing1" unicode="&#58899;" d="M501.632 894.208l11.008 0.768 8.96-0.768 12.416-3.2 9.856-4.736 8.704-6.144 8.192-8.192 6.656-9.472 134.656-238.848 275.584-79.872a64 64 0 0 0 37.632-93.44l-6.528-9.344-191.104-226.176 34.56-269.568a64 64 0 0 0-80.384-69.888l-9.856 3.584-250.368 114.816-250.368-114.816a64 64 0 0 0-90.624 55.808l0.512 10.496 34.304 269.568L14.592 440.96a64 64 0 0 0 20.48 98.688l10.496 4.096 275.456 79.872L455.936 862.464l3.072 4.992 3.712 4.736 7.68 7.68 8.96 6.4 11.392 5.12 10.88 2.816z"  horiz-adv-x="1024" />

    
    <glyph glyph-name="daxing-weixuan" unicode="&#58890;" d="M512.365714 894.829714l168.96-299.008 343.332572-99.474285-239.030857-283.136 43.373714-339.968-316.635429 144.969142-316.562285-144.969142 43.373714 339.968-239.030857 283.062857 343.405714 99.547428L512.365714 894.829714"  horiz-adv-x="1024" />

    
    <glyph glyph-name="guanbi1" unicode="&#58891;" d="M512 384m-512 0a512 512 0 1 1 1024 0 512 512 0 1 1-1024 0ZM506.112 369.792L345.173333 530.645333l20.096 20.138667 160.896-160.853333 160.938667 160.853333 20.096-20.096-160.896-160.896 160.896-160.938667-20.096-20.096-160.938667 160.896-160.853333-160.896-20.138667 20.096z"  horiz-adv-x="1024" />

    
    <glyph glyph-name="daxing-xuanze" unicode="&#58892;" d="M512.365714 894.829714l168.96-299.008 343.332572-99.474285-239.030857-283.136 43.373714-339.968-316.635429 144.969142-316.562285-144.969142 43.373714 339.968-239.030857 283.062857 343.405714 99.547428L512.365714 894.829714"  horiz-adv-x="1024" />

    
    <glyph glyph-name="zhankai" unicode="&#58893;" d="M512 384m-512 0a512 512 0 1 1 1024 0 512 512 0 1 1-1024 0ZM517.802667 255.232l-192 192 29.866666 29.866667 162.133334-162.133334 162.133333 162.133334 29.866667-29.866667z"  horiz-adv-x="1024" />

    
    <glyph glyph-name="shaixuanpaixu" unicode="&#58894;" d="M332.032 140.608l-80-80V304h-80v-243.392l-80 80-56.64-56.576 176.64-176.64 176.576 176.64-56.64 56.576zM212.032 860.608l-176.64-176.64 56.576-56.576 80 80V464h80V707.392l80-80 56.64 56.64L211.968 860.544zM472 784H992V704H472V784z m0-240H992v-80H472V544z m0-240H992v-80H472V304z m0-240H992v-80H472V64z"  horiz-adv-x="1024" />

    
    <glyph glyph-name="zhedie1" unicode="&#58896;" d="M512 384m-512 0a512 512 0 1 1 1024 0 512 512 0 1 1-1024 0ZM517.802667 477.098667l192-192-29.866667-29.866667-162.133333 162.133333-162.133334-162.133333-29.866666 29.866667z"  horiz-adv-x="1024" />

    
    <glyph glyph-name="renli-bai" unicode="&#58886;" d="M661.312 362.688v-21.376C661.312 260.288 593.088 192 512 192c-81.088 0-149.312 68.288-149.312 149.312v21.376h42.624v-21.376A105.6 105.6 0 0 1 512 234.688a105.6 105.6 0 0 1 106.688 106.624v21.376h42.624zM192 490.688V704h213.312v-42.688H234.688v-170.624H192z m0-213.376h42.688v-170.624h170.624V64H192V277.312z m640 213.376h-42.688V661.312H618.688V704H832v-213.312z m0-213.376V64H618.688v42.688h170.624V277.312H832z m-384 256V448h-42.688V533.312H448z m170.688 0V448H576V533.312h42.688z"  horiz-adv-x="1024" />

    
    <glyph glyph-name="hehuoren-bai" unicode="&#58887;" d="M592.293647 189.259294v-96.37647h-40.116706v124.446117c132.517647 28.129882 232.869647 136.553412 240.941177 273.106824h40.116706c-8.011294-140.589176-108.423529-261.059765-240.941177-301.176471z m-200.764235 0c-132.517647 40.116706-232.929882 160.587294-240.941177 305.152h40.176941a294.972235 294.972235 0 0 1 240.941177-273.046588v-128.481882H391.529412v96.37647z m196.788706 546.093177c72.282353 0 124.446118-52.163765 124.446117-124.446118 0-64.271059-52.163765-124.506353-92.340706-164.683294-28.129882-28.069647-68.246588-56.199529-128.481882-84.329412-60.235294 32.165647-104.448 60.235294-128.542118 84.329412C323.282824 486.4 271.058824 546.635294 271.058824 610.906353c0 72.282353 52.224 124.446118 124.506352 124.446118a114.447059 114.447059 0 0 0 96.376471-48.188236c28.069647 32.165647 60.235294 48.188235 96.376471 48.188236zM592.293647 474.352941c48.188235 48.188235 80.353882 96.376471 80.353882 136.553412 0 52.163765-36.141176 84.329412-84.329411 84.329412-20.118588 0-36.141176-8.071529-48.188236-16.082824a31.322353 31.322353 0 0 1-16.082823-16.082823l-32.105412-40.116706-32.165647 40.116706a31.322353 31.322353 0 0 1-16.022588 16.082823 86.136471 86.136471 0 0 1-48.188236 16.082824c-52.224 0-84.329412-32.165647-84.329411-84.329412C311.235765 570.729412 343.341176 522.541176 391.529412 474.352941c20.058353-20.058353 56.199529-44.152471 100.412235-68.246588C536.094118 430.200471 572.235294 454.294588 592.293647 474.352941z"  horiz-adv-x="1024" />

    
    <glyph glyph-name="renli-lan" unicode="&#58888;" d="M652.528941 394.059294v-20.118588C652.528941 297.682824 588.318118 233.411765 512 233.411765c-76.318118 0-140.528941 64.271059-140.528941 140.528941v20.118588h40.116706v-20.118588A99.388235 99.388235 0 0 1 512 273.588706a99.388235 99.388235 0 0 1 100.412235 100.352v20.118588h40.116706zM210.823529 514.529882V715.294118h200.764236v-40.176942H251.000471v-160.587294H210.823529z m0-200.82447h40.176942v-160.587294h160.587294V112.941176H210.823529V313.705412z m602.352942 200.82447h-40.176942V675.117176H612.412235V715.294118H813.176471v-200.764236z m0-200.82447V112.941176H612.412235v40.176942h160.587294V313.705412H813.176471z m-361.411765 240.941176V474.352941h-40.176941V554.646588H451.764706z m160.647529 0V474.352941H572.235294V554.646588h40.176941z"  horiz-adv-x="1024" />

    
    <glyph glyph-name="hehuoren-zi" unicode="&#58889;" d="M592.293647 169.140706v-96.376471h-40.116706V197.270588c132.517647 28.129882 232.869647 136.553412 240.941177 273.046588h40.116706c-8.011294-140.528941-108.423529-260.999529-240.941177-301.17647z m-200.764235 0C259.011765 209.317647 158.599529 329.788235 150.588235 474.352941h40.176941a294.972235 294.972235 0 0 1 240.941177-273.046588v-128.542118H391.529412v96.376471zM588.318118 715.294118c72.282353 0 124.446118-52.224 124.446117-124.506353 0-64.210824-52.163765-124.446118-92.340706-164.623059-28.129882-28.129882-68.246588-56.199529-128.481882-84.329412-60.235294 32.105412-104.448 60.235294-128.542118 84.329412C323.282824 466.341647 271.058824 526.576941 271.058824 590.787765 271.058824 663.070118 323.282824 715.294118 395.565176 715.294118a114.447059 114.447059 0 0 0 96.376471-48.188236c28.069647 32.105412 60.235294 48.188235 96.376471 48.188236z m3.975529-260.99953c48.188235 48.188235 80.353882 96.376471 80.353882 136.493177 0 52.224-36.141176 84.329412-84.329411 84.329411-20.118588 0-36.141176-8.011294-48.188236-16.022588A31.322353 31.322353 0 0 1 524.047059 643.011765l-32.105412-40.176941-32.165647 40.176941a31.322353 31.322353 0 0 1-16.022588 16.082823 86.136471 86.136471 0 0 1-48.188236 16.022588c-52.224 0-84.329412-32.105412-84.329411-84.329411 0-40.116706 32.105412-88.304941 80.293647-136.493177 20.058353-20.118588 56.199529-44.212706 100.412235-68.306823 44.152471 24.094118 80.293647 48.188235 100.352 68.306823z"  horiz-adv-x="1024" />

    
    <glyph glyph-name="Arrows" unicode="&#58885;" d="M818.9952 185.0368L506.1632-127.7952 204.8 173.568l614.1952 11.4688zM516.608 896L817.152 595.5584 204.8 584.192 516.608 896z"  horiz-adv-x="1024" />

    
    <glyph glyph-name="gengduo-xuanzhongtai" unicode="&#58881;" d="M170.6496 341.3504V426.6496H256v-85.2992H170.6496z m298.7008 0V426.6496h85.2992v-85.2992H469.3504z m298.6496 0V426.6496h85.3504v-85.2992H768z"  horiz-adv-x="1024" />

    
    <glyph glyph-name="gengduo1" unicode="&#58882;" d="M170.6496 341.3504V426.6496H256v-85.2992H170.6496z m298.7008 0V426.6496h85.2992v-85.2992H469.3504z m298.6496 0V426.6496h85.3504v-85.2992H768z"  horiz-adv-x="1024" />

    
    <glyph glyph-name="tuozhuai" unicode="&#58883;" d="M85.376 810.624h1365.248v-85.248H85.376V810.624z m0-853.248h1365.248V-128H85.376v85.376zM85.376 384h1365.248v-85.376H85.376V384z"  horiz-adv-x="1536" />

    
    <glyph glyph-name="tianjia-huidi" unicode="&#58884;" d="M512 384m-512 0a512 512 0 1 1 1024 0 512 512 0 1 1-1024 0ZM512 384V611.541333h28.458667V384H768v-28.458667h-227.541333V128H512v227.541333H284.458667V384z"  horiz-adv-x="1024" />

    
    <glyph glyph-name="tichengtijiao" unicode="&#59016;" d="M518.107429 365.714286V570.514286l-8.557715 8.521143H262.107429V365.714286h256z m42.642285 0h256V579.035429h-247.442285l-8.557715-8.521143v-204.8z m-42.642285-42.678857h-256V109.714286h554.642285v213.321143h-256V109.714286h-42.642285v213.321143zM573.549714 621.714286H859.428571v-554.678857H219.428571V621.714286h285.878858l-98.157715 98.121143L437.028571 749.714286l102.4-102.4 102.4 102.4 29.878858-29.878857L573.549714 621.714286z"  horiz-adv-x="1024" />

    
    <glyph glyph-name="tichengjisuan" unicode="&#59048;" d="M426.678857 457.142857H384V585.142857h298.678857V457.142857h-256z m0 42.678857H640V542.464h-213.321143v-42.642286zM256 713.142857h554.678857v-682.678857H256V713.142857z m42.678857-42.678857V73.142857H768V670.464H298.678857z m85.321143-298.642286h42.678857V329.142857H384v42.678857z m128 0h42.678857V329.142857H512v42.678857z m128 0h42.678857V329.142857H640v42.678857z m-256-85.357714h42.678857v-42.642286H384v42.642286z m128 0h42.678857v-42.642286H512v42.642286zM384 201.142857h42.678857v-42.678857H384V201.142857z m128 0h42.678857v-42.678857H512V201.142857z m128 85.321143h42.678857v-128H640v128zM256 713.142857h554.678857v-42.678857H256V713.142857z"  horiz-adv-x="1024" />

    
    <glyph glyph-name="zengjia" unicode="&#59047;" d="M512 742.4c198.144 0 358.4-160.256 358.4-358.4s-160.256-358.4-358.4-358.4-358.4 160.256-358.4 358.4 160.256 358.4 358.4 358.4z m0-51.2c-167.936 0-307.2-139.264-307.2-307.2s139.264-307.2 307.2-307.2 307.2 139.264 307.2 307.2-139.264 307.2-307.2 307.2z m19.9168-128v-159.2832H691.2v-39.8336h-159.2832V204.8H492.032v159.2832H332.8V403.968h159.2832V563.2h39.8336z"  horiz-adv-x="1024" />

    
    <glyph glyph-name="xueyuanpeidui" unicode="&#59045;" d="M597.321143 285.878857v140.8h256v-384h-256v183.442286l-64-64-106.642286 106.678857 29.842286 29.878857 76.8-76.8 64 64zM810.678857 384H640v-298.678857h170.678857V384z m-384 0H256v-298.678857h170.678857V384z m42.642286 0v-341.321143h-256v384h256V384z m384 213.321143c0-72.521143-55.442286-128-128-128-72.521143 0-128 55.478857-128 128 0 72.557714 55.478857 128 128 128 72.557714 0 128-55.442286 128-128z m-42.642286 0a85.577143 85.577143 0 0 1-85.357714 85.357714A85.577143 85.577143 0 0 1 640 597.321143a85.577143 85.577143 0 0 1 85.321143-85.321143 85.577143 85.577143 0 0 1 85.357714 85.321143z m-341.357714 0c0-72.521143-55.442286-128-128-128-72.521143 0-128 55.478857-128 128 0 72.557714 55.478857 128 128 128 72.557714 0 128-55.442286 128-128z m-42.642286 0a85.577143 85.577143 0 0 1-85.357714 85.357714A85.577143 85.577143 0 0 1 256 597.321143 85.577143 85.577143 0 0 1 341.321143 512a85.577143 85.577143 0 0 1 85.357714 85.321143z"  horiz-adv-x="1024" />

    
    <glyph glyph-name="chakanyonghu" unicode="&#59046;" d="M682.678857 162.121143L588.8 256H307.2l-93.878857-93.878857v-76.8h469.357714v76.8z m42.642286 17.078857v-136.521143H170.678857V179.2l119.442286 119.478857h311.478857l123.721143-119.478857z m166.4 110.921143l59.757714-59.721143-29.878857-29.878857-59.721143 59.757714c-42.678857-25.6-98.157714-21.357714-132.278857 12.8-42.678857 42.642286-42.678857 110.921143 0 149.321143 42.678857 38.4 110.921143 42.678857 149.321143 0 34.157714-34.121143 38.4-89.6 12.8-132.278857zM640 533.321143a191.195429 191.195429 0 0 0-192-192A191.195429 191.195429 0 0 0 256 533.321143a191.195429 191.195429 0 0 0 192 192 191.195429 191.195429 0 0 0 192-192z m-42.678857 0c0 81.078857-68.242286 149.357714-149.321143 149.357714S298.678857 614.4 298.678857 533.321143c0-81.042286 68.242286-149.321143 149.321143-149.321143s149.321143 68.278857 149.321143 149.321143z m157.878857-230.4c25.6-25.6 64-25.6 89.6 0 25.6 25.6 25.6 64 0 89.6-25.6 25.6-64 25.6-89.6 0-25.6-25.6-25.6-64 0-89.6z"  horiz-adv-x="1024" />

    
    <glyph glyph-name="shoukuanqueren" unicode="&#59044;" d="M876.507429 393.142857l76.8-76.8-29.878858-29.878857-106.678857 106.678857 106.678857 106.678857 29.878858-29.878857-76.8-76.8z m-128 0l76.8-76.8-29.878858-29.878857-106.678857 106.678857 106.678857 106.678857 29.878858-29.878857-76.8-76.8z m-187.757715-64h85.357715v-42.678857h-85.357715v-42.642286h-42.642285v42.642286h-85.357715V329.142857h85.357715v42.678857h-85.357715v42.642286h85.357715L411.428571 521.142857l29.878858 29.878857 98.121142-98.157714 98.121143 98.157714 29.878857-29.878857-106.678857-106.678857h85.357715v-42.642286h-85.357715V329.142857z m298.678857 256h-42.678857V670.464H262.107429v-554.642286h554.642285V201.142857H859.428571v-128H219.428571V713.142857h640v-128z"  horiz-adv-x="1024" />

    
    <glyph glyph-name="bangzhu" unicode="&#59017;" d="M494.9504 294.4v42.6496c0 12.8 8.4992 21.3504 21.2992 21.3504 34.1504 0 64 29.8496 64 64v42.6496c0 34.1504-29.8496 64-64 64-34.0992 0-64-29.8496-64-64v-42.6496c0-8.5504 0-12.8 4.3008-21.3504h-42.7008C413.8496 409.6 409.6 413.8496 409.6 422.4v42.6496c0 59.7504 46.9504 106.7008 106.6496 106.7008 59.7504 0 106.7008-46.9504 106.7008-106.7008v-42.6496c0-51.2-38.4-93.8496-85.3504-102.4v-46.9504h-42.6496v21.3504z m21.2992-277.3504A362.3424 362.3424 0 0 0 153.6 379.7504 362.3424 362.3424 0 0 0 516.2496 742.4a362.3424 362.3424 0 0 0 362.7008-362.6496 362.3424 362.3424 0 0 0-362.7008-362.7008z m0 42.7008c174.9504 0 320 145.0496 320 320 0 174.8992-145.0496 320-320 320-174.8992 0-320-145.1008-320-320 0-174.9504 145.1008-320 320-320zM494.9504 230.4h42.6496v-42.6496h-42.6496V230.4z"  horiz-adv-x="1024" />

    
    <glyph glyph-name="bianji1" unicode="&#59018;" d="M529.0496 742.4l243.2-243.2L401.0496 128H153.6v243.2L529.0496 742.4z m-332.8-388.2496v-179.2h179.2l332.8 324.2496-179.2 179.2-332.8-324.2496zM153.6 42.6496h128v-42.6496H153.6v42.6496z m170.6496 0H537.6v-42.6496H324.2496v42.6496z m256 0h298.7008v-42.6496h-298.7008v42.6496z"  horiz-adv-x="1024" />

    
    <glyph glyph-name="biaoqiantianjia" unicode="&#59019;" d="M512 384V579.035429h24.393143V384H731.428571v-24.393143h-195.035428V164.571429H512v195.035428H316.964571V384z"  horiz-adv-x="1024" />

    
    <glyph glyph-name="fanhuishangceng" unicode="&#59020;" d="M384 384l192-192 29.866667 29.866667-162.133334 162.133333 162.133334 162.133333-29.866667 29.866667z"  horiz-adv-x="1024" />

    
    <glyph glyph-name="tiaodufuwu" unicode="&#59021;" d="M341.312 554.688H768A105.6 105.6 0 0 0 874.688 448c0-12.8-4.288-25.6-8.576-38.4-17.024-46.912-51.2-68.288-98.112-68.288H256c-34.112 0-64-29.824-64-64 0-34.112 29.888-64 64-64h533.312l-42.624-42.624L640 64l-29.888 29.888 76.8 76.8H256a105.6 105.6 0 0 0-106.688 106.624C149.312 337.088 200.512 384 256 384h512c34.112 0 64 29.888 64 64 0 34.112-25.6 64-64 64H234.688l29.824 29.888L384 661.312l29.888-29.824-72.576-76.8z"  horiz-adv-x="1024" />

    
    <glyph glyph-name="ewaihuibao" unicode="&#59022;" d="M182.857143 713.142857h640v-426.678857L609.536 73.142857H182.857143V713.142857z m42.678857-42.678857v-554.642286H592.457143l187.721143 187.721143V670.464H225.536z m426.642286-170.642286H353.536V542.464h298.642286v-42.642286z m0-128H353.536v42.642286h298.642286v-42.642286z m-85.321143-128H353.536v42.642286H566.857143v-42.642286z"  horiz-adv-x="1024" />

    
    <glyph glyph-name="gerenxinxi1" unicode="&#59023;" d="M444.964571 249.892571a85.577143 85.577143 0 0 1-85.357714 85.357715A85.577143 85.577143 0 0 1 274.285714 249.892571H231.606857c0 72.557714 55.478857 128 128 128 72.557714 0 128-55.442286 128-128h-42.642286zM871.606857 676.571429v-554.678858H146.285714V676.571429h725.321143zM188.964571 633.892571V164.571429h640V633.892571h-640z m597.321143-128v-42.642285h-256v42.642285h256z m0-85.321142v-42.678858h-256V420.571429h256z m-42.678857-85.321143V292.571429H530.285714v42.678857h213.321143z m-384 42.642285A85.577143 85.577143 0 0 0 274.285714 463.250286 85.577143 85.577143 0 0 0 359.606857 548.571429a85.577143 85.577143 0 0 0 85.357714-85.321143 85.577143 85.577143 0 0 0-85.357714-85.357715z m0 42.678858c25.6 0 42.678857 17.078857 42.678857 42.678857s-17.078857 42.642286-42.678857 42.642285-42.642286-17.042286-42.642286-42.642285S334.006857 420.571429 359.606857 420.571429z"  horiz-adv-x="1024" />

    
    <glyph glyph-name="kaoshichengji" unicode="&#59024;" d="M182.857143 713.142857h640v-640H182.857143V713.142857z m42.678857-42.678857v-554.642286h554.642286V670.464H225.536z m149.321143-256c-34.121143 0-64 29.878857-64 64 0 34.157714 29.878857 64 64 64s64-29.842286 64-64c0-34.121143-29.878857-64-64-64z m106.678857 128H694.857143v-42.642286h-213.321143V542.464z m0-85.321143H694.857143v-42.678857h-213.321143V457.142857zM310.857143 371.821714H694.857143V329.142857H310.857143v42.678857z m0-85.357714H694.857143v-42.642286H310.857143v42.642286z"  horiz-adv-x="1024" />

    
    <glyph glyph-name="chakan" unicode="&#59025;" d="M529.0496 597.3504C366.9504 597.3504 243.2 529.0496 153.6 384c89.6-145.0496 213.3504-213.3504 375.4496-213.3504 162.1504 0 285.9008 68.3008 375.5008 213.3504-89.6 145.0496-213.3504 213.3504-375.5008 213.3504z m0-469.3504C345.6 128 200.5504 213.3504 102.4 384c98.1504 170.6496 243.2 256 426.6496 256 183.5008 0 328.5504-85.3504 426.7008-256-98.1504-170.6496-243.2-256-426.7008-256z m0 170.6496c46.9504 0 85.3504 38.4 85.3504 85.3504s-38.4 85.3504-85.3504 85.3504c-46.8992 0-85.2992-38.4-85.2992-85.3504s38.4-85.3504 85.2992-85.3504z m0-42.6496c-72.4992 0-128 55.4496-128 128s55.5008 128 128 128c72.5504 0 128-55.4496 128-128s-55.4496-128-128-128z"  horiz-adv-x="1024" />

    
    <glyph glyph-name="kewaihuodong" unicode="&#59026;" d="M508.964571 152.393143c-128 0-234.678857 106.642286-234.678857 234.642286 0 128 106.678857 234.678857 234.678857 234.678857s234.642286-106.678857 234.642286-234.678857-106.642286-234.642286-234.642286-234.642286z m0 42.642286a191.195429 191.195429 0 0 1 192 192 191.195429 191.195429 0 0 1-192 192 191.195429 191.195429 0 0 1-192-192 191.195429 191.195429 0 0 1 192-192zM487.606857 749.714286H530.285714v-85.321143h-42.678857V749.714286z m0-640H530.285714v-85.321143h-42.678857V109.714286z m384 298.678857V365.714286H786.285714v42.678857h85.321143z m-640 0V365.714286H146.285714v42.678857h85.321143zM752.164571 660.114286l29.842286-29.878857L722.285714 570.514286l-29.878857 29.878857 59.757714 59.721143zM299.885714 207.835429l29.878857-29.842286-59.757714-59.757714-29.842286 29.878857L299.885714 207.835429z m482.121143-64l-29.842286-29.842286-59.757714 59.721143 29.878857 29.878857 59.721143-59.757714zM329.764571 596.114286l-29.878857-29.878857-64 64 29.878857 29.878857 64-64z"  horiz-adv-x="1024" />

    
    <glyph glyph-name="guanbi" unicode="&#59027;" d="M503.856762 388.047238L390.095238 501.857524l28.428191 28.42819 113.810285-113.761524L646.095238 530.285714l28.428191-28.42819L560.761905 388.047238l113.761524-113.761524-28.428191-28.42819L532.333714 359.619048l-113.810285-113.761524-28.428191 28.42819 113.761524 113.761524z m28.476952-345.380571a345.088 345.088 0 0 0-345.429333 345.380571 345.088 345.088 0 0 0 345.429333 345.429333 345.088 345.088 0 0 0 345.380572-345.429333 345.088 345.088 0 0 0-345.380572-345.380571z m0 40.618666c166.570667 0 304.761905 138.191238 304.761905 304.761905 0 166.619429-138.191238 304.761905-304.761905 304.761905-166.619429 0-304.761905-138.142476-304.761904-304.761905 0-166.570667 138.142476-304.761905 304.761904-304.761905z"  horiz-adv-x="1024" />

    
    <glyph glyph-name="qitashixiang" unicode="&#59028;" d="M640 145.088v-102.4h-42.688v132.224c140.8 29.888 247.488 145.088 256 290.176H896c-8.512-149.376-115.2-277.376-256-320z m-213.312 0c-140.8 42.624-247.488 170.624-256 324.224h42.624a313.408 313.408 0 0 1 256-290.112v-136.512h-42.624v102.4z m209.024 580.224c76.8 0 132.288-55.424 132.288-132.224 0-68.288-55.488-132.288-98.112-174.976-29.888-29.824-72.576-59.712-136.576-89.6-64 34.176-110.912 64-136.512 89.6C354.112 460.8 298.688 524.8 298.688 593.088c0 76.8 55.424 132.224 132.224 132.224a121.6 121.6 0 0 0 102.4-51.2c29.888 34.176 64 51.2 102.4 51.2zM640 448c51.2 51.2 85.312 102.4 85.312 145.088 0 55.424-38.4 89.6-89.6 89.6-21.312 0-38.4-8.576-51.2-17.088a33.28 33.28 0 0 1-17.024-17.088l-34.176-42.624-34.112 42.624a33.28 33.28 0 0 1-17.088 17.088 91.52 91.52 0 0 1-51.2 17.088c-55.424 0-89.6-34.176-89.6-89.6C341.312 550.4 375.488 499.2 426.688 448c21.312-21.312 59.712-46.912 106.624-72.512 46.976 25.6 85.376 51.2 106.688 72.512z"  horiz-adv-x="1024" />

    
    <glyph glyph-name="jiangxiangrongyu" unicode="&#59029;" d="M652.178286-18.285714l-149.321143 42.678857L353.536-18.285714v166.4C251.136 203.593143 182.857143 310.235429 182.857143 429.714286 182.857143 604.635429 327.936 749.714286 502.857143 749.714286c174.921143 0 320-145.078857 320-320 0-123.721143-68.278857-230.4-170.678857-281.6V-18.285714z m-42.642286 55.478857v89.6c-25.6-8.557714-55.478857-17.078857-85.357714-17.078857v-51.2l85.357714-21.321143z m-213.357714 0l85.357714 25.6V109.714286c-29.878857 0-59.757714 8.521143-85.357714 17.078857v-89.6z m106.678857 115.2c153.6 0 277.321143 123.721143 277.321143 277.321143S656.457143 707.035429 502.857143 707.035429a276.772571 276.772571 0 0 1-277.321143-277.321143c0-153.6 123.721143-277.321143 277.321143-277.321143z m0 85.321143a191.195429 191.195429 0 0 0-192 192 191.195429 191.195429 0 0 0 192 192A191.195429 191.195429 0 0 0 694.857143 429.714286 191.195429 191.195429 0 0 0 502.857143 237.714286z m0 42.678857c81.078857 0 149.321143 68.242286 149.321143 149.321143s-68.242286 149.321143-149.321143 149.321143-149.321143-68.242286-149.321143-149.321143 68.242286-149.321143 149.321143-149.321143z"  horiz-adv-x="1024" />

    
    <glyph glyph-name="weikuancuishou" unicode="&#59030;" d="M803.364571 393.142857l76.8-76.8-29.878857-29.878857-106.678857 106.678857 106.678857 106.678857 29.878857-29.878857-76.8-76.8z m-128 0l76.8-76.8-29.878857-29.878857-106.678857 106.678857 106.678857 106.678857 29.878857-29.878857-76.8-76.8z m-187.757714-64h85.357714v-42.678857h-85.357714v-42.642286h-42.642286v42.642286H359.606857V329.142857h85.357714v42.678857H359.606857v42.642286h85.357714L338.285714 521.142857l29.878857 29.878857 98.121143-98.157714 98.121143 98.157714 29.878857-29.878857-106.678857-106.678857h85.357714v-42.642286h-85.357714V329.142857z m298.678857 256h-42.678857V670.464H188.964571v-554.642286h554.642286V201.142857H786.285714v-128H146.285714V713.142857h640v-128z"  horiz-adv-x="1024" />

    
    <glyph glyph-name="shanchu1" unicode="&#59031;" d="M247.4496 657.0496h554.7008v-640H247.4496v640z m42.7008-42.6496v-554.6496h469.2992V614.4H290.1504z m128-128H460.8v-298.6496h-42.6496V486.4zM588.8 486.4h42.6496v-298.6496H588.8V486.4zM204.8 657.0496h640V614.4H204.8v42.6496zM418.1504 742.4h213.2992v-42.6496H418.1504V742.4z"  horiz-adv-x="1024" />

    
    <glyph glyph-name="xinxizonglan" unicode="&#59032;" d="M871.606857 365.714286c-8.521143-183.478857-157.842286-328.521143-341.321143-341.321143h-42.678857C304.164571 32.914286 159.085714 182.235429 146.285714 365.714286v42.678857C154.806857 591.835429 304.164571 736.914286 487.606857 749.714286H530.285714c183.478857-8.521143 328.521143-157.878857 341.321143-341.321143V365.714286z m-42.642286 0H786.285714v42.678857h42.678857c-8.557714 157.842286-136.557714 285.842286-298.678857 298.642286v-42.642286h-42.678857V707.035429C329.764571 698.514286 201.764571 570.514286 188.964571 408.393143h42.642286V365.714286H188.964571c8.521143-157.878857 136.521143-285.878857 298.642286-298.678857V109.714286H530.285714v-42.678857c157.878857 12.8 285.878857 140.8 298.678857 298.678857zM274.285714 591.835429l29.878857 29.878857 29.842286-29.878857-29.842286-29.842286-29.878857 29.842286zM679.606857 186.514286l29.878857 29.878857 29.878857-29.878857-29.878857-29.878857-29.878857 29.878857zM709.485714 621.714286l29.878857-29.878857-29.878857-29.842286-29.878857 29.842286 29.878857 29.878857zM304.164571 216.393143l29.842286-29.878857-29.842286-29.878857L274.285714 186.514286l29.878857 29.878857zM658.285714 515.035429l-106.678857-196.242286-89.6 89.6L658.285714 515.035429z"  horiz-adv-x="1024" />

    
    <glyph glyph-name="xiazai" unicode="&#59033;" d="M486.4 174.9504V435.2h42.6496v-260.2496l98.1504 98.0992 29.8496-29.8496-106.6496-106.6496h170.6496C806.4 145.0496 870.4 217.6 870.4 307.2c0 93.8496-76.8 170.6496-170.6496 170.6496h-4.3008C674.1504 576 588.8 648.5504 486.4 648.5504A211.2512 211.2512 0 0 1 273.0496 435.2c-72.4992-8.5504-128-72.5504-128-149.3504 0-81.0496 68.3008-149.2992 149.3504-149.2992h170.6496L358.4 243.2l29.8496 29.8496L486.4 174.9504z m64-38.4l-42.6496-42.7008-42.7008 42.7008H422.4v-42.7008h-128A191.1808 191.1808 0 0 0 102.4 285.8496c0 85.3504 55.4496 157.9008 128 183.5008A258.048 258.048 0 0 0 486.4 691.2c110.9504 0 209.0496-72.5504 243.2-170.6496 102.4-12.8 183.4496-102.4 183.4496-213.3504s-85.2992-200.5504-192-213.3504h-128v42.7008h-42.6496z"  horiz-adv-x="1024" />

    
    <glyph glyph-name="xianxiajianmian" unicode="&#59034;" d="M597.312 285.888v140.8h256v-384h-256v183.424l-64-64L426.688 268.8l29.824 29.888 76.8-76.8 64 64zM810.688 384H640v-298.688h170.688V384z m-384 0H256v-298.688h170.688V384z m42.624 0v-341.312h-256v384h256V384z m384 213.312c0-72.512-55.424-128-128-128-72.512 0-128 55.488-128 128 0 72.576 55.488 128 128 128 72.576 0 128-55.424 128-128z m-42.624 0c0 46.976-38.4 85.376-85.376 85.376-46.912 0-85.312-38.4-85.312-85.376C640 550.4 678.4 512 725.312 512c46.976 0 85.376 38.4 85.376 85.312z m-341.376 0c0-72.512-55.424-128-128-128-72.512 0-128 55.488-128 128 0 72.576 55.488 128 128 128 72.576 0 128-55.424 128-128z m-42.624 0c0 46.976-38.4 85.376-85.376 85.376C294.4 682.688 256 644.288 256 597.312 256 550.4 294.4 512 341.312 512c46.976 0 85.376 38.4 85.376 85.312z"  horiz-adv-x="1024" />

    
    <glyph glyph-name="hangzhengjilu" unicode="&#59035;" d="M353.536 115.821714h311.442286a72.045714 72.045714 0 0 0-12.8 42.642286v512H225.536v-512c0-25.6 17.042286-42.642286 42.642286-42.642286h85.357714zM182.857143 158.464V713.142857h512v-128h128v-426.678857a85.577143 85.577143 0 0 0-85.321143-85.321143H268.178286A85.577143 85.577143 0 0 0 182.857143 158.464z m512 384v-384c0-25.6 17.078857-42.642286 42.678857-42.642286s42.642286 17.042286 42.642286 42.642286v384H694.857143z m-384 0h256v-42.642286h-256V542.464z m0-128h256v-42.642286h-256v42.642286z m0-128h170.678857v-42.642286H310.857143v42.642286z"  horiz-adv-x="1024" />

    
    <glyph glyph-name="shanchucu" unicode="&#59036;" d="M576 384l277.312-277.312-64-64L512 320l-277.312-277.312-64 64L448 384 170.688 661.312l64 64L512 448l277.312 277.312 64-64z"  horiz-adv-x="1024" />

    
    <glyph glyph-name="xueyuansiliao" unicode="&#59037;" d="M256 128v-68.288L324.288 128h486.4V640H256v-512z m0-128h-42.688V682.688h640v-597.376h-512L256 0z m426.688 426.688H384v42.624h298.688v-42.624z m-85.376-128H384v42.624h213.312v-42.624z"  horiz-adv-x="1024" />

    
    <glyph glyph-name="yiluquxueyuan" unicode="&#59038;" d="M664.978286 90.221714l119.478857 119.442286 29.878857-29.842286-149.357714-149.357714-4.242286 4.278857-89.6 89.6 29.842286 29.878857 64-64z m-140.8-17.078857v-42.678857H182.857143v136.557714l119.478857 119.442286h311.442286l46.957714-46.921143-29.878857-29.878857-29.878857 34.157714h-281.6L225.536 149.942857v-76.8h298.642286z m128 448a191.195429 191.195429 0 0 0-192-192 191.195429 191.195429 0 0 0-192 192A191.195429 191.195429 0 0 0 460.178286 713.142857a191.195429 191.195429 0 0 0 192-192z m-42.642286 0c0 81.078857-68.278857 149.321143-149.357714 149.321143-81.042286 0-149.321143-68.242286-149.321143-149.321143s68.278857-149.321143 149.321143-149.321143c81.078857 0 149.357714 68.242286 149.357714 149.321143z"  horiz-adv-x="1024" />

    
    <glyph glyph-name="xuanxiaoqingdan" unicode="&#59039;" d="M877.714286 280.393143h-42.678857v89.6l-320 320-320-320V109.714286H493.714286v-42.678857H152.393143v277.357714H109.714286L515.035429 749.714286l405.357714-405.321143H877.714286v-64zM536.393143 237.714286h42.642286v-42.678857h-42.642286V237.714286z m0-85.321143h42.642286V109.714286h-42.642286v42.678857z m0-85.357714h42.642286v-42.642286h-42.642286v42.642286zM621.714286 237.714286h256v-42.678857h-256V237.714286z m0-85.321143h256V109.714286h-256v42.678857z m0-85.357714h256v-42.642286h-256v42.642286z"  horiz-adv-x="1024" />

    
    <glyph glyph-name="xueyuanjiachang" unicode="&#59040;" d="M682.688 341.312V320c0-81.088-68.288-149.312-149.376-149.312C452.288 170.688 384 238.912 384 320v21.312h42.688V320a105.6 105.6 0 0 1 106.624-106.688A105.6 105.6 0 0 1 640 320v21.312h42.688zM533.312 0a362.368 362.368 0 0 0-362.624 362.688 362.368 362.368 0 0 0 362.624 362.624A362.368 362.368 0 0 0 896 362.688 362.368 362.368 0 0 0 533.312 0z m0 42.688c174.976 0 320 145.024 320 320 0 174.912-145.024 320-320 320-174.912 0-320-145.088-320-320 0-174.976 145.088-320 320-320zM469.312 512v-85.312h-42.624V512h42.624zM640 512v-85.312h-42.688V512H640z"  horiz-adv-x="1024" />

    
    <glyph glyph-name="zaixiaoxinxi" unicode="&#59041;" d="M621.714286 24.393143c0 46.921143 25.6 89.6 64 110.921143-12.8 17.078857-21.321143 38.4-21.321143 59.721143a85.577143 85.577143 0 0 0 85.321143 85.357714 85.577143 85.577143 0 0 0 85.321143-85.357714c0-21.321143-8.521143-42.642286-21.321143-59.721143 38.4-21.321143 64-64 64-110.921143h-42.678857A85.577143 85.577143 0 0 1 749.714286 109.714286a85.577143 85.577143 0 0 1-85.321143-85.321143H621.714286z m256 256h-42.678857v89.6l-320 320-320-320V109.714286h341.357714v-42.678857h-384v277.357714H109.714286L515.035429 749.714286l405.357714-405.321143H877.714286v-64zM749.714286 237.714286c-25.6 0-42.678857-17.078857-42.678857-42.678857s17.078857-42.642286 42.678857-42.642286 42.678857 17.042286 42.678857 42.642286S775.314286 237.714286 749.714286 237.714286z"  horiz-adv-x="1024" />

    
    <glyph glyph-name="xueyuan1" unicode="&#59042;" d="M725.312 512c-8.512-93.888-93.824-170.688-192-170.688-98.112 0-179.2 76.8-192 170.688v42.688c8.576 93.824 93.888 170.624 192 170.624 98.176 0 179.2-76.8 192-170.624h85.376V512h-85.376z m-42.624 0H384c8.512-72.512 72.512-128 149.312-128 76.8 0 136.576 55.488 149.376 128zM384 554.688h298.688c-8.576 72.512-72.576 128-149.376 128-76.8 0-136.512-55.488-149.312-128z m384-392.576L674.112 256h-281.6l-93.824-93.888v-76.8H768v76.8z m42.688 17.088v-136.512H256V179.2l119.488 119.488h311.424l123.776-119.488z"  horiz-adv-x="1024" />

    
    <glyph glyph-name="ziyuangongju" unicode="&#59043;" d="M469.321143 426.678857h-256v42.642286h640v-42.642286h-256V384h-128v42.678857zM384 597.321143V682.678857h298.678857v-85.357714H896v-512H170.678857v512H384z m42.678857 0H640V640h-213.321143v-42.678857zM213.321143 554.678857V128h640V554.678857h-640z"  horiz-adv-x="1024" />

    
    <glyph glyph-name="shanchu2" unicode="&#59015;" d="M558.9504 366.9504l285.8496-285.9008-29.8496-29.8496-285.9008 285.8496L243.2 51.2l-29.8496 29.8496 285.8496 285.9008L213.3504 652.8l29.8496 29.8496 285.8496-285.8496 285.9008 285.8496 29.8496-29.8496z"  horiz-adv-x="1024" />

    
    <glyph glyph-name="qita" unicode="&#59008;" d="M489.941333 85.333333C650.965333 85.333333 768 210.218667 768 362.666667 768 516.693333 652.458667 640 491.392 640 330.368 640 213.333333 515.114667 213.333333 362.666667c0-154.026667 115.541333-277.333333 276.608-277.333334z m1.450667 108.8c-92.416 0-158.037333 76.586667-158.037333 168.533334 0 93.44 64.128 168.533333 156.586666 168.533333 92.416 0 158.037333-76.586667 158.037334-168.533333 0-93.44-64.128-168.533333-156.586667-168.533334z"  horiz-adv-x="1024" />

    
    <glyph glyph-name="danpianPS" unicode="&#59009;" d="M417.28 128v153.6h90.112c120.917333 0 217.941333 61.44 217.941333 179.925333C725.333333 567.594667 647.552 640 518.912 640H298.666667v-512h118.613333z m93.952 253.824H417.28V538.325333h91.648c59.306667 0 96.256-27.050667 96.256-77.525333 0-45.354667-34.645333-78.976-93.952-78.976z"  horiz-adv-x="1024" />

    
    <glyph glyph-name="qitadanpianPS" unicode="&#59010;" d="M527.402667 128C643.712 128 725.333333 183.466667 725.333333 282.325333c0 88.149333-61.610667 124.416-170.965333 150.741334-93.184 22.058667-116.309333 32.725333-116.309333 65.408 0 25.6 23.893333 44.8 69.333333 44.8s92.416-18.474667 140.16-49.066667l61.610667 82.517333C654.464 617.258667 587.477333 640 508.928 640 398.805333 640 320.213333 580.266667 320.213333 489.941333c0-100.266667 70.101333-128 178.688-153.6 90.112-21.333333 108.586667-35.541333 108.586667-63.274666 0-30.592-29.269333-48.341333-77.781333-48.341334-61.610667 0-112.426667 23.466667-160.938667 60.416L298.666667 207.658667C363.349333 154.325333 445.781333 128 527.402667 128z"  horiz-adv-x="1024" />

    
    <glyph glyph-name="meiguobenke" unicode="&#59011;" d="M489.130667 87.125333c144.64 0 236.202667 74.88 236.202666 227.541334V599.125333h-118.485333v-288.768c0-79.957333-43.861333-121.002667-116.181333-121.002666-72.32 0-116.181333 42.496-116.181334 124.586666V599.125333H256v-288.042666c0-148.352 88.490667-224 233.130667-224z"  horiz-adv-x="1024" />

    
    <glyph glyph-name="yanjiusheng" unicode="&#59012;" d="M538.453333 87.125333c98.304 0 174.293333 38.272 229.546667 85.034667v232.874667h-233.386667v-101.888h119.04v-76.586667c-29.952-21.461333-68.352-32.213333-111.36-32.213333-95.146667 0-162.688 72.021333-162.688 170.112 0 92.672 68.266667 168.533333 154.282667 168.533333 62.165333 0 98.986667-19.925333 140.458667-54.4l74.453333 89.6c-56.021333 47.530667-114.346667 73.6-211.072 73.6C374.997333 641.792 256 516.906667 256 364.458667c0-160.128 115.157333-277.333333 282.453333-277.333334z"  horiz-adv-x="1024" />

    
    <glyph glyph-name="zhuanxue" unicode="&#59013;" d="M568.661333 128V536.149333H725.333333V640H298.666667v-103.850667h156.672V128z"  horiz-adv-x="1024" />

    
    <glyph glyph-name="yingguobenke" unicode="&#59014;" d="M810.666667 597.034667h-118.741334l-126.592-215.509334h-0.810666V597.333333h-107.946667l-0.597333-341.632c0-46.378667-26.922667-74.282667-68.138667-74.282666-39.253333 0-67.029333 28.416-67.029333 74.282666L321.365333 597.333333H213.333333v-357.12C213.333333 145.322667 270.506667 85.333333 389.333333 85.333333c131.584 0 175.189333 79.488 175.189334 154.88v111.274667h0.810666l123.733334-258.133333H810.666667l-144.469334 277.717333L810.666667 597.034667z"  horiz-adv-x="1024" />

    
    <glyph glyph-name="tianbaogongshi" unicode="&#59002;" d="M521.764571 749.714286l243.2-243.2-371.2-371.2H146.285714v243.2L521.764571 749.714286z m-332.8-388.278857v-179.2h179.2l332.8 324.278857-179.2 179.2-332.8-324.278857zM146.285714 49.993143h128V7.314286H146.285714v42.678857z m170.678857 0H530.285714V7.314286H316.964571v42.678857z m256 0h298.642286V7.314286h-298.642286v42.678857z"  horiz-adv-x="1024" />

    
    <glyph glyph-name="chakangongzi" unicode="&#59003;" d="M530.285714 335.250286h85.321143V292.571429H530.285714v-42.678858h-42.678857V292.571429H402.285714v42.678857h85.321143v42.642285H402.285714V420.571429h85.321143l-106.642286 106.678857 29.842286 29.842285 98.157714-98.121142L607.085714 557.092571l29.878857-29.842285L530.285714 420.571429h85.321143v-42.678858H530.285714v-42.642285z m341.321143 170.642285v-42.642285c-25.6-8.557714-42.642286-34.157714-42.642286-59.757715 0-25.6 17.042286-51.2 42.642286-59.721142v-221.878858H146.285714v217.6c25.6 8.557714 42.678857 34.157714 42.678857 59.757715 0 25.6-17.078857 51.2-42.678857 59.721143V676.571429h725.321143v-170.678858z m-42.642286-21.321142V633.892571h-640v-149.321142c25.6-21.321143 42.642286-51.2 42.642286-85.321143 0-34.157714-17.042286-64-42.642286-85.357715V164.571429h640v149.321142c-25.6 21.357714-42.678857 51.2-42.678857 85.357715 0 34.121143 17.078857 64 42.678857 85.321143z"  horiz-adv-x="1024" />

    
    <glyph glyph-name="gerenxinxi" unicode="&#59004;" d="M444.964571 249.892571a85.577143 85.577143 0 0 1-85.357714 85.357715A85.577143 85.577143 0 0 1 274.285714 249.892571H231.606857c0 72.557714 55.478857 128 128 128 72.557714 0 128-55.442286 128-128h-42.642286zM871.606857 676.571429v-554.678858H146.285714V676.571429h725.321143zM188.964571 633.892571V164.571429h640V633.892571h-640z m597.321143-128v-42.642285h-256v42.642285h256z m0-85.321142v-42.678858h-256V420.571429h256z m-42.678857-85.321143V292.571429H530.285714v42.678857h213.321143z m-384 42.642285A85.577143 85.577143 0 0 0 274.285714 463.250286 85.577143 85.577143 0 0 0 359.606857 548.571429a85.577143 85.577143 0 0 0 85.357714-85.321143 85.577143 85.577143 0 0 0-85.357714-85.357715z m0 42.678858c25.6 0 42.678857 17.078857 42.678857 42.678857s-17.078857 42.642286-42.678857 42.642285-42.642286-17.042286-42.642286-42.642285S334.006857 420.571429 359.606857 420.571429z"  horiz-adv-x="1024" />

    
    <glyph glyph-name="yifafang1" unicode="&#59005;" d="M487.936 315.7504l168.6528 168.6528 28.1088-28.16-184.7296-184.6784-12.0832-12.032-136.4992 136.4992 28.1088 28.16 108.3904-108.4416z m24.064-273.1008A341.0432 341.0432 0 0 0 170.6496 384 341.0432 341.0432 0 0 0 512 725.3504 341.0432 341.0432 0 0 0 853.3504 384 341.0432 341.0432 0 0 0 512 42.6496z m0 40.192c164.6592 0 301.1584 136.4992 301.1584 301.1584 0 164.6592-136.4992 301.1584-301.1584 301.1584-164.6592 0-301.1584-136.4992-301.1584-301.1584 0-164.6592 136.4992-301.1584 301.1584-301.1584z"  horiz-adv-x="1024" />

    
    <glyph glyph-name="weifafang1" unicode="&#59006;" d="M512 42.6496A341.0432 341.0432 0 0 0 170.6496 384 341.0432 341.0432 0 0 0 512 725.3504 341.0432 341.0432 0 0 0 853.3504 384 341.0432 341.0432 0 0 0 512 42.6496z m0 40.192c164.6592 0 301.1584 136.4992 301.1584 301.1584 0 164.6592-136.4992 301.1584-301.1584 301.1584-164.6592 0-301.1584-136.4992-301.1584-301.1584 0-164.6592 136.4992-301.1584 301.1584-301.1584z m20.0704 160.6144v-40.1408h-40.1408v40.1408h40.1408z m0 321.2288v-281.088h-40.1408V564.736h40.1408z"  horiz-adv-x="1024" />

    
    <glyph glyph-name="weixin" unicode="&#59007;" d="M419.108571 655.981714c116.077714 0 218.88-72.484571 239.689143-168.374857v-2.304c49.115429-4.315429 95.414857-24.210286 130.084572-56.502857 35.035429-32.694857 54.491429-74.788571 54.491428-118.381714 0-47.213714-27.684571-95.085714-76.982857-134.619429l14.811429-48.713143a11.702857 11.702857 0 0 0-3.913143-12.470857 10.422857 10.422857 0 0 0-7.387429-2.706286 12.580571 12.580571 0 0 0-5.485714 1.609143l-58.148571 31.597715c-22.162286-5.412571-44.361143-10.532571-66.194286-10.532572-86.454857 0-163.657143 47.213714-192.475429 117.321143-6.217143-2.011429-27.684571-3.291429-32.402285-3.291429-24.978286 0-41.179429 3.291429-64.585143 7.972572h-0.402286l-8.996571 1.901714-75.593143-37.778286a12.178286 12.178286 0 0 0-12.909715 1.609143c-3.510857 3.072-5.12 7.789714-3.510857 12.470857l19.894857 59.977143c-58.002286 42.532571-88.393143 97.024-88.393142 157.037715 0 112.603429 106.715429 204.214857 238.409142 204.214857z m220.086858-198.948571c-96 0-174.08-66.048-174.08-146.944 0-80.896 78.189714-146.907429 174.189714-146.907429 20.882286 0 42.276571 5.632 62.793143 10.715429 0.804571 0.402286 2.011429 0.402286 2.816 0.402286 1.901714 0 3.876571-0.804571 5.485714-1.609143l35.474286-19.382857-8.265143 27.977142a10.678857 10.678857 0 0 0 3.876571 12.214858c46.628571 34.816 71.899429 76.288 71.497143 116.516571 0 79.798857-79.36 147.017143-173.787428 147.017143z m-220.525715 168.850286c-114.176 0-206.884571-78.262857-206.884571-174.482286 0-53.394286 27.721143-99.693714 82.212571-137.874286 4.315429-3.218286 5.888-8.228571 4.315429-12.909714l-13.312-39.716572 51.785143 25.965715c2.304 0.841143 5.12 1.243429 7.424 0.841143l12.507428-2.304c20.589714-4.315429 39.68-8.192 61.878857-8.192 6.582857 0 12.105143 0.182857 18.285715 0.585142l2.816 0.219429a136.850286 136.850286 0 0 0-5.12 36.973714c0 91.611429 86.125714 167.204571 192.512 169.508572-19.382857 80.603429-108.690286 141.385143-208.384 141.385143z m154.038857-240.786286c16.274286 0 26.294857-16.566857 26.294858-32s-10.020571-32-26.331429-32c-10.788571 0-21.467429 16.018286-21.467429 32 0 16.018286 10.788571 32 21.504 32z m117.394286 0c15.396571 0 24.868571-16.566857 24.868572-32s-9.472-32-24.868572-32c-10.203429 0-20.004571 16.018286-20.004571 32 0 16.018286 9.801143 32 20.004571 32z m-184.795428 156.342857c15.981714 0 26.989714-12.946286 26.989714-31.780571 0-18.797714-10.715429-31.744-26.989714-31.744-15.616 0-32.292571 12.507429-32.292572 31.744 0 19.638857 16.676571 31.817143 32.292572 31.817142zM353.645714 541.915429c16.201143 0 27.318857-12.982857 27.318857-31.817143 0-19.236571-10.788571-32.182857-27.318857-31.744-15.798857 0-32.694857 12.068571-32.694857 31.780571 0 19.602286 16.896 31.780571 32.694857 31.780572z"  horiz-adv-x="1024" />

    
    <glyph glyph-name="jianzhidaoshigongzi" unicode="&#58992;" d="M548.571429 237.714286h85.321142v-42.678857H548.571429v-42.642286h-42.678858v42.642286H420.571429V237.714286h85.321142v42.678857H420.571429v42.642286h89.6l-98.121143 98.157714 29.842285 29.842286 85.357715-85.321143 85.321143 85.321143 29.878857-29.842286-98.157715-98.157714h89.6v-42.642286H548.571429V237.714286z m-213.321143-213.321143H292.571429V749.714286h469.321142v-725.321143H335.250286z m0 42.642286h384v640h-384v-640z m0 512V621.714286c64-29.878857 128-42.678857 192-42.678857s128 12.8 192 42.678857v-42.678857c-64-29.842286-128-42.642286-192-42.642286s-128 12.8-192 42.642286z"  horiz-adv-x="1024" />

    
    <glyph glyph-name="hezuofangliebiao" unicode="&#58993;" d="M585.142857 273.664v140.8h256v-384h-256V213.942857l-64-64-106.678857 106.678857 29.878857 29.842286 76.8-76.8 64 64z m213.321143 98.157714h-170.642286V73.142857h170.642286v298.678857z m-384 0H243.821714V73.142857h170.642286v298.678857z m42.678857 0v-341.357714h-256v384h256v-42.642286zM841.142857 585.142857c0-72.521143-55.478857-128-128-128S585.142857 512.621714 585.142857 585.142857 640.621714 713.142857 713.142857 713.142857 841.142857 657.664 841.142857 585.142857z m-42.678857 0A85.577143 85.577143 0 0 1 713.142857 670.464 85.577143 85.577143 0 0 1 627.821714 585.142857a85.577143 85.577143 0 0 1 85.321143-85.321143A85.577143 85.577143 0 0 1 798.464 585.142857z m-341.321143 0c0-72.521143-55.478857-128-128-128s-128 55.478857-128 128S256.621714 713.142857 329.142857 713.142857s128-55.478857 128-128z m-42.678857 0A85.577143 85.577143 0 0 1 329.142857 670.464 85.577143 85.577143 0 0 1 243.821714 585.142857 85.577143 85.577143 0 0 1 329.142857 499.821714 85.577143 85.577143 0 0 1 414.464 585.142857z"  horiz-adv-x="1024" />

    
    <glyph glyph-name="hezuofangfandian" unicode="&#58994;" d="M839.936 375.478857L733.257143 268.8l-29.878857 29.878857 76.8 76.8-76.8 76.8 29.878857 29.842286 106.678857-106.642286z m128 0L861.257143 268.8l-29.878857 29.878857 76.8 76.8-76.8 76.8 29.878857 29.842286 106.678857-106.642286z m-443.757714-76.8h85.357714V256h-85.357714v-42.678857h-42.642286V256h-85.357714v42.678857h85.357714v42.642286h-85.357714V384h85.357714l-106.678857 106.678857 29.878857 29.842286 98.121143-98.121143 98.121143 98.121143 29.878857-29.842286L524.178286 384h85.357714v-42.678857h-85.357714v-42.642286z m298.678857 256h-42.678857V640H225.536v-554.678857h554.642286v85.357714H822.857143v-128H182.857143v640h640v-128z"  horiz-adv-x="1024" />

    
    <glyph glyph-name="jianzhidaoshiliebiao" unicode="&#58995;" d="M390.107429 73.142857l42.642285-42.678857H219.428571v166.4l89.6 89.6h59.721143l34.157715-42.642286h-76.8l-64-64V73.142857h128z m213.321142 0H731.428571v106.678857l-64 64h-72.521142l34.121142 42.642286h59.721143l89.6-89.6v-166.4H565.028571L603.428571 73.142857z m-93.878857 145.078857l51.2-123.757714-64-64-64 64 51.2 123.757714-51.2 68.242286h128l-51.2-68.242286z m179.2 302.921143a191.195429 191.195429 0 0 0-192-192 191.195429 191.195429 0 0 0-192 192A191.195429 191.195429 0 0 0 496.749714 713.142857a191.195429 191.195429 0 0 0 192-192z m-42.642285 0c0 81.078857-68.278857 149.321143-149.357715 149.321143-81.042286 0-149.321143-68.242286-149.321143-149.321143s68.278857-149.321143 149.321143-149.321143c81.078857 0 149.357714 68.242286 149.357715 149.321143z"  horiz-adv-x="1024" />

    
    <glyph glyph-name="weifafang" unicode="&#58996;" d="M192 704h640v-640H192V704z m42.656-42.656v-554.688h554.688V661.344H234.656z"  horiz-adv-x="1024" />

    
    <glyph glyph-name="shixishengliebiao" unicode="&#58997;" d="M688.749714 499.821714C680.228571 405.942857 594.907429 329.142857 496.749714 329.142857c-98.121143 0-179.2 76.8-192 170.678857V542.464C313.307429 636.342857 398.628571 713.142857 496.749714 713.142857c98.157714 0 179.2-76.8 192-170.678857h85.357715v-42.642286h-85.357715z m-42.642285 0H347.428571c8.521143-72.557714 72.521143-128 149.321143-128s136.557714 55.442286 149.357715 128zM347.428571 542.464h298.678858c-8.557714 72.557714-72.557714 128-149.357715 128-76.8 0-136.521143-55.442286-149.321143-128zM731.428571 149.942857l-93.878857 93.878857h-281.6L262.107429 149.942857v-76.8H731.428571v76.8z m42.678858 17.078857v-136.557714H219.428571v136.557714l119.478858 119.442286h311.442285l123.757715-119.442286z"  horiz-adv-x="1024" />

    
    <glyph glyph-name="shixishenggongzi" unicode="&#58998;" d="M530.285714 323.035429h85.321143v-42.642286H530.285714V237.714286h-42.678857v42.678857H402.285714v42.642286h85.321143V365.714286H402.285714v42.678857h89.6l-98.121143 98.121143 29.842286 29.878857 85.357714-85.357714 85.321143 85.357714 29.878857-29.878857-98.157714-98.121143h89.6V365.714286H530.285714v-42.678857z m-21.321143-298.642286A362.349714 362.349714 0 0 0 146.285714 387.035429 362.349714 362.349714 0 0 0 508.964571 749.714286a362.349714 362.349714 0 0 0 362.642286-362.678857 362.349714 362.349714 0 0 0-362.642286-362.642286z m0 42.642286c174.921143 0 320 145.078857 320 320 0 174.957714-145.078857 320-320 320-174.957714 0-320-145.042286-320-320 0-174.921143 145.042286-320 320-320z m0 42.678857a276.772571 276.772571 0 0 0-277.357714 277.321143c0 153.6 123.757714 277.357714 277.357714 277.357714 153.6 0 277.321143-123.757714 277.321143-277.357714 0-153.6-123.721143-277.321143-277.321143-277.321143z m0 42.678857c128 0 234.642286 106.642286 234.642286 234.642286 0 128-106.642286 234.678857-234.642286 234.678857-128 0-234.678857-106.678857-234.678857-234.678857s106.678857-234.642286 234.678857-234.642286z"  horiz-adv-x="1024" />

    
    <glyph glyph-name="riqixuanze_wangqian" unicode="&#58999;" d="M352.298667 387.029333l332.8 332.8-29.866667 29.866667-362.666667-362.666667 362.666667-362.666666 29.866667 29.866666z"  horiz-adv-x="1024" />

    
    <glyph glyph-name="yifafang" unicode="&#59000;" d="M477.856 324.256l179.2 179.2 29.888-29.856-209.088-209.056-123.712 123.712 29.856 29.888 93.856-93.888zM192 704h640v-640H192V704z m42.656-42.656v-554.688h554.688V661.344H234.656z"  horiz-adv-x="1024" />

    
    <glyph glyph-name="riqixuanze_wanghou" unicode="&#59001;" d="M698.496 387.029333l-332.8 332.8 29.866667 29.866667 362.666666-362.666667-362.666666-362.666666-29.866667 29.866666z"  horiz-adv-x="1024" />

    
    <glyph glyph-name="meifang" unicode="&#58980;" d="M230.881882 132.999529h-40.116706V534.588235H271.058824V695.235765h522.059294V534.588235H873.411765v-401.588706h-40.176941v-40.116705H752.941176v40.116705H311.235765v-40.116705H230.881882v40.116705zM752.941176 534.588235V655.058824H311.235765v-120.470589H752.941176z m40.176942-40.176941H230.881882V173.176471h602.352942V494.411294h-40.116706zM391.529412 293.647059c-24.094118 0-40.176941 16.082824-40.176941 40.176941S367.435294 373.940706 391.529412 373.940706s40.176941-16.022588 40.176941-40.116706S415.623529 293.647059 391.529412 293.647059z m281.118117 0c-24.094118 0-40.176941 16.082824-40.176941 40.176941s16.082824 40.116706 40.176941 40.116706 40.116706-16.022588 40.116706-40.116706-16.022588-40.176941-40.116706-40.176941z"  horiz-adv-x="1024" />

    
    <glyph glyph-name="gexinghua" unicode="&#58981;" d="M552.176941 132.999529c168.658824 0 301.176471 136.553412 301.176471 301.176471 0 164.683294-136.553412 301.176471-301.176471 301.176471-164.683294 0-301.176471-136.493176-301.17647-301.176471 0-88.304941 32.105412-124.446118 108.423529-148.540235 8.011294-4.035765 12.047059-4.035765 20.058353-8.07153 4.035765 0 20.058353-3.975529 20.058353-8.011294 48.188235-16.082824 72.282353-24.094118 92.400941-48.188235 16.022588-16.082824 28.069647-36.141176 40.116706-56.19953 4.035765-8.071529 8.071529-16.082824 8.071529-20.118588 8.011294 0 8.011294-8.011294 12.047059-12.047059z m0-40.116705c-56.259765 0-20.118588 40.116706-84.329412 104.387764-60.235294 60.235294-257.024 24.094118-257.024 236.905412A341.052235 341.052235 0 0 0 552.176941 775.529412a341.052235 341.052235 0 0 0 341.293177-341.353412 341.052235 341.052235 0 0 0-341.293177-341.293176zM620.423529 193.234824c-40.176941 0-72.282353 32.165647-72.282353 72.282352 0 40.176941 32.105412 68.306824 72.282353 68.306824 40.176941 0 72.282353-32.165647 72.282353-68.306824 0-36.141176-32.105412-72.282353-72.282353-72.282352z m0 40.176941c16.082824 0 32.105412 12.047059 32.105412 32.105411 0 20.118588-12.047059 28.129882-32.105412 28.129883s-32.105412-12.047059-32.105411-28.129883c0-16.022588 16.022588-32.105412 32.105411-32.105411z m32.105412 341.353411c-24.094118 0-40.116706 16.022588-40.116706 40.116706S628.434824 655.058824 652.528941 655.058824s40.176941-16.082824 40.176941-40.176942-16.082824-40.116706-40.176941-40.116706zM540.129882 606.870588c-24.094118 0-40.176941 16.082824-40.176941 40.176941s16.082824 40.116706 40.176941 40.116706 40.116706-16.022588 40.116706-40.116706-16.022588-40.176941-40.116706-40.176941z m192.752942-112.459294C708.788706 494.411294 692.705882 510.494118 692.705882 534.588235s16.082824 40.176941 40.176942 40.176941 40.116706-16.082824 40.116705-40.176941-16.022588-40.176941-40.116705-40.176941z m-301.176471 80.353882c-24.094118 0-40.176941 16.022588-40.176941 40.116706S407.612235 655.058824 431.706353 655.058824s40.116706-16.082824 40.116706-40.176942-16.022588-40.116706-40.116706-40.116706z"  horiz-adv-x="1024" />

    
    <glyph glyph-name="gengduo" unicode="&#58982;" d="M512 384m-512 0a512 512 0 1 1 1024 0 512 512 0 1 1-1024 0ZM284.458667 355.541333v56.917334H341.333333v-56.917334H284.458667z m199.082666 0v56.917334h56.917334v-56.917334h-56.917334z m199.125334 0v56.917334h56.874666v-56.917334H682.666667z"  horiz-adv-x="1024" />

    
    <glyph glyph-name="guihua" unicode="&#58983;" d="M507.964235 337.799529l72.282353-128.481882 108.42353 100.412235 144.564706 32.105412-60.235295 132.517647 16.082824 144.564706-144.564706-16.082823-132.517647 60.235294-32.105412-144.564706-100.412235-108.42353 128.481882-72.282353zM463.811765 317.741176L315.211294 402.070588 439.717647 538.624l40.176941 180.705882 168.658824-76.318117 184.681412 24.094117L813.176471 482.364235l76.318117-168.658823-180.705882-40.116706L572.235294 149.082353l-80.293647 140.528941-265.035294-265.035294L198.776471 52.705882l265.035294 265.035294z"  horiz-adv-x="1024" />

    
    <glyph glyph-name="shixisheng" unicode="&#58984;" d="M777.035294 606.870588l28.129882 28.129883c68.246588-92.400941 60.235294-224.918588-24.094117-309.248-72.282353-72.282353-184.741647-88.304941-273.106824-48.188236l-208.775529-208.775529-32.165647 28.069647L210.823529 153.118118l-28.129882 28.069647L391.529412 390.023529a233.773176 233.773176 0 0 0 48.188235 273.046589c84.329412 84.329412 216.847059 92.400941 309.187765 24.094117l-28.069647-28.069647-84.329412-84.329412 56.199529-56.259764L777.035294 606.870588z m20.058353-36.141176l-76.257882-76.318118-28.129883-28.069647-112.459294 112.399059L608.376471 606.870588l72.282353 72.282353a190.945882 190.945882 0 0 1-212.811295-40.176941C387.493647 558.682353 387.493647 434.176 467.847529 353.882353c80.293647-80.293647 204.8-80.293647 285.093647 0 56.199529 60.235294 72.282353 144.564706 44.152471 216.847059z m-558.140235-385.505883l56.199529-56.199529 172.694588 172.634353c-12.047059 8.071529-20.118588 16.082824-32.165647 24.094118a62.464 62.464 0 0 0-24.094117 32.165647L238.953412 185.223529z"  horiz-adv-x="1024" />

    
    <glyph glyph-name="wenshu" unicode="&#58985;" d="M471.823059 406.106353A207.510588 207.510588 0 0 0 427.670588 534.588235a198.836706 198.836706 0 0 0 200.764236 200.764236A198.836706 198.836706 0 0 0 829.259294 534.588235a198.836706 198.836706 0 0 0-200.82447-200.764235c-48.188235 0-92.340706 16.022588-124.446118 44.152471l-128.542118-128.481883 72.282353-72.282353-28.069647-28.129882-72.282353 72.282353-56.259765-56.19953 68.306824-72.282352L331.294118 64.752941l-72.282353 72.282353-28.129883 28.129882 240.941177 240.941177z m156.611765 289.129412A161.129412 161.129412 0 0 1 467.847529 534.588235c0-88.365176 72.282353-160.647529 160.587295-160.647529C716.8 373.940706 789.082353 446.223059 789.082353 534.588235c0 88.365176-72.282353 160.647529-160.647529 160.64753z"  horiz-adv-x="1024" />

    
    <glyph glyph-name="xiaoshou" unicode="&#58986;" d="M407.612235 494.411294H656.564706L564.224 655.058824H499.952941L407.612235 494.411294z m3.97553-40.116706l120.470588-305.212235 120.470588 305.212235h-240.941176z m425.682823 40.116706L720.835765 655.058824H608.376471l92.340705-160.64753H837.270588z m20.058353-40.116706h-160.587294L580.246588 161.129412l277.082353 293.165176zM226.906353 494.411294h132.517647L451.764706 655.058824H343.341176L226.906353 494.411294z m-20.118588-40.116706l277.082353-293.165176-112.399059 293.165176H206.787765zM532.058353 52.705882L150.588235 458.270118l168.658824 236.965647h421.647059l168.658823-236.965647L532.058353 52.705882z"  horiz-adv-x="1024" />

    
    <glyph glyph-name="hangzheng" unicode="&#58987;" d="M532.058353 598.859294v-84.329412h321.295059V112.941176H170.646588V514.529882h321.295059v84.329412A60.416 60.416 0 0 0 451.764706 655.058824c0 32.105412 28.129882 60.235294 60.235294 60.235294 32.105412 0 60.235294-28.129882 60.235294-60.235294 0-28.129882-16.082824-48.188235-40.176941-56.19953zM491.941647 474.352941H210.823529v-321.234823h602.352942V474.352941H491.941647z m-361.411765-80.293647v-200.82447H90.352941V394.059294h40.176941z m803.117177 0v-200.82447h-40.176941V394.059294H933.647059z m-562.176-120.470588c-24.094118 0-40.176941 16.022588-40.176941 40.116706S347.376941 353.882353 371.471059 353.882353s40.116706-16.082824 40.116706-40.176941-16.022588-40.116706-40.116706-40.116706z m281.057882 0c-24.094118 0-40.116706 16.022588-40.116706 40.116706S628.434824 353.882353 652.528941 353.882353s40.176941-16.082824 40.176941-40.176941-16.082824-40.116706-40.176941-40.116706z"  horiz-adv-x="1024" />

    
    <glyph glyph-name="zhuanxiang" unicode="&#58988;" d="M552.176941 317.741176v-64.271058H512V317.741176c-20.058353 4.035765-40.176941 12.047059-52.224 28.129883-20.058353 20.058353-32.105412 48.188235-28.069647 84.329412 36.141176 0 64.210824-8.071529 84.329412-28.129883 8.011294-8.011294 12.047059-16.082824 16.022588-24.094117 4.035765 8.011294 8.071529 16.082824 16.082823 24.094117 20.058353 20.058353 48.188235 32.105412 84.329412 28.129883 0-36.141176-8.011294-64.271059-28.129882-84.329412-12.047059-16.082824-32.105412-24.094118-52.163765-28.129883z m281.057883 257.024V655.058824h-602.352942v-80.293648h602.352942z m40.176941 0V534.588235h-40.176941v-441.705411h-602.352942V534.588235h-40.116706V695.235765H873.411765v-120.470589zM271.058824 534.588235v-401.588706h522.059294V534.588235H271.058824z"  horiz-adv-x="1024" />

    
    <glyph glyph-name="xueyuan" unicode="&#58989;" d="M532.058353 353.882353h80.353882v-40.176941H532.058353v-40.116706h-40.116706v40.116706H411.587765V353.882353h80.353882v40.176941H411.587765v40.116706h80.353882L391.529412 534.588235l28.129882 28.129883L512 470.317176l92.340706 92.400942L632.470588 534.588235 532.058353 434.176h80.353882v-40.116706H532.058353V353.882353zM813.176471 715.294118v-602.352942H210.823529V715.294118h602.352942z m-562.176-40.176942v-521.999058h521.999058V675.117176H251.000471z"  horiz-adv-x="1024" />

    
    <glyph glyph-name="Active" unicode="&#58990;" d="M529.0496 725.3504c198.144 0 358.4-160.256 358.4-358.4s-160.256-358.4-358.4-358.4-358.4 160.256-358.4 358.4 160.256 358.4 358.4 358.4z m157.9008-256l-179.2-179.2-115.2 115.2-29.9008-29.9008L507.7504 230.4 716.8 439.4496l-29.8496 29.9008z"  horiz-adv-x="1024" />

    
    <glyph glyph-name="Inactive" unicode="&#58991;" d="M512 742.4c198.144 0 358.4-160.256 358.4-358.4s-160.256-358.4-358.4-358.4-358.4 160.256-358.4 358.4 160.256 358.4 358.4 358.4z m122.88-204.8L512 414.72 389.12 537.6l-30.72-30.72L481.28 384 358.4 261.12l30.72-30.72 122.88 122.88 122.88-122.88 30.72 30.72-122.88 122.88L665.6 506.88l-30.72 30.72z"  horiz-adv-x="1024" />

    
    <glyph glyph-name="shanchu" unicode="&#58979;" d="M256 640h554.688v-640H256V640z m42.688-42.688v-554.624H768V597.312H298.688z m128-128h42.624v-298.624h-42.624V469.312z m170.624 0H640v-298.624h-42.688V469.312zM213.312 640h640v-42.688h-640V640z m213.376 85.312H640v-42.624H426.688v42.624z"  horiz-adv-x="1024" />

    
    <glyph glyph-name="rilifanye_wanghou" unicode="&#58969;" d="M0 896m186.181818 0l651.636364 0q186.181818 0 186.181818-186.181818l0-651.636364q0-186.181818-186.181818-186.181818l-651.636364 0q-186.181818 0-186.181818 186.181818l0 651.636364q0 186.181818 186.181818 186.181818ZM378.973091 594.944l221.416727-206.522182-206.475636-221.416727 67.397818-62.836364 269.358545 288.814546-288.86109 269.358545z"  horiz-adv-x="1024" />

    
    <glyph glyph-name="liebiaoriqi_wangqian" unicode="&#58970;" d="M512 384m0 512a512 512 0 1 1 0-1024 512 512 0 1 1 0 1024ZM381.147429 376.210286l258.852571-258.852572-23.222857-23.222857-282.075429 282.075429L616.777143 658.285714l23.222857-23.222857z"  horiz-adv-x="1024" />

    
    <glyph glyph-name="jindutiao_chulizhong" unicode="&#58971;" d="M0 896h1024v-1024H0zM512 704c176.736 0 320-143.264 320-320s-143.264-320-320-320S192 207.264 192 384 335.264 704 512 704z m0-64a256 256 0 1 1 0-512 256 256 0 0 1 0 512z m0-128a128 128 0 1 0 0-256 128 128 0 0 0 0 256z"  horiz-adv-x="1024" />

    
    <glyph glyph-name="liebiaoriqi_wanghou" unicode="&#58972;" d="M512 384m0-512a512 512 0 1 1 0 1024 512 512 0 1 1 0-1024ZM642.852571 391.789714l-258.852571 258.852572 23.222857 23.222857 282.075429-282.075429L407.222857 109.714286l-23.222857 23.222857z"  horiz-adv-x="1024" />

    
    <glyph glyph-name="jindutiao_yiwancheng" unicode="&#58973;" d="M0 896h1024v-1024H0zM512 384m-320 0a320 320 0 1 1 640 0 320 320 0 1 1-640 0ZM478.4 275.2L368 384l11.2 11.2 99.2-99.2 182.4 184 11.2-11.2z"  horiz-adv-x="1024" />

    
    <glyph glyph-name="liebiao_tianjia" unicode="&#58974;" d="M494.9504 401.0496V571.7504h42.6496v-170.7008h170.6496v-42.6496H537.6v-170.6496h-42.6496V358.4H324.2496v42.6496h170.7008z m21.2992-384A362.3424 362.3424 0 0 0 153.6 379.7504 362.3424 362.3424 0 0 0 516.2496 742.4a362.3424 362.3424 0 0 0 362.7008-362.6496 362.3424 362.3424 0 0 0-362.7008-362.7008z m0 42.7008c174.9504 0 320 145.0496 320 320 0 174.8992-145.0496 320-320 320-174.8992 0-320-145.1008-320-320 0-174.9504 145.1008-320 320-320z"  horiz-adv-x="1024" />

    
    <glyph glyph-name="dangyuezongzixunshu" unicode="&#58975;" d="M512 384m-512 0a512 512 0 1 1 1024 0 512 512 0 1 1-1024 0ZM612 84c0 36.672 20 70 50 86.672-10 13.328-16.672 30-16.672 46.656A66.864 66.864 0 0 0 712 284a66.864 66.864 0 0 0 66.672-66.672c0-16.656-6.672-33.328-16.672-46.656 30-16.672 50-50 50-86.672h-33.328a66.864 66.864 0 0 1-66.672 66.672 66.864 66.864 0 0 1-66.672-66.672H612z m200 200h-33.328v70L528.672 604 278.672 354v-203.328h266.656v-33.344h-300V334H212l316.672 316.672 316.656-316.672H812v-50z m-100-33.328c-20 0-33.328-13.344-33.328-33.344S692 184 712 184c20 0 33.328 13.328 33.328 33.328 0 20-13.328 33.344-33.328 33.344z"  horiz-adv-x="1024" />

    
    <glyph glyph-name="liebiaobiaotou_paixu" unicode="&#58976;" d="M533.312 119.488l-192 192 29.888 29.824L533.312 179.2l162.176 162.112 29.824-29.824-192-192z m0 503.424L371.2 460.8l-29.888 29.888 192 192 192-192-29.824-29.888-162.176 162.112z"  horiz-adv-x="1024" />

    
    <glyph glyph-name="liebiaobiaotou_shaixuan" unicode="&#58977;" d="M533.312 264.51199999999994l332.8 332.8 29.888-29.824L533.312 204.79999999999995 170.688 567.488l29.824 29.824z"  horiz-adv-x="1024" />

    
    <glyph glyph-name="jindutiao_weidadao" unicode="&#58978;" d="M0 896h1024v-1024H0zM512 704c176.736 0 320-143.264 320-320s-143.264-320-320-320S192 207.264 192 384 335.264 704 512 704z m0-32a288 288 0 1 1 0-576 288 288 0 0 1 0 576z"  horiz-adv-x="1024" />

    
    <glyph glyph-name="fangqiqianyue" unicode="&#58932;" d="M742.4 682.678857h-102.4v-85.357714h-213.321143v64c0 8.557714 0 12.8 4.242286 21.357714H298.678857v-443.757714L256 196.278857V725.321143h192c21.321143 25.6 51.2 42.678857 85.321143 42.678857 34.157714 0 64-17.078857 85.357714-42.678857h166.4L742.4 682.678857z m25.6-153.6l42.678857 42.642286V0H256v17.078857l42.678857 42.642286v-17.042286H768v486.4zM469.321143 640h128v21.321143c0 34.157714-29.842286 64-64 64-34.121143 0-64-29.842286-64-64V640z m379.757714 89.6l29.842286-29.878857L217.6 38.4l-29.878857 29.878857L849.078857 729.6z"  horiz-adv-x="1024" />

    
    <glyph glyph-name="fukuanwancheng1" unicode="&#58933;" d="M876.507429 356.571429l76.8-76.8-29.878858-29.878858-106.678857 106.678858 106.678857 106.678857 29.878858-29.878857-76.8-76.8z m-128 0l76.8-76.8-29.878858-29.878858-106.678857 106.678858 106.678857 106.678857 29.878858-29.878857-76.8-76.8z m-187.757715-64h85.357715v-42.678858h-85.357715v-42.642285h-42.642285v42.642285h-85.357715V292.571429h85.357715v42.678857h-85.357715v42.642285h85.357715L411.428571 484.571429l29.878858 29.878857 98.121142-98.157715 98.121143 98.157715 29.878857-29.878857-106.678857-106.678858h85.357715v-42.642285h-85.357715V292.571429z m298.678857 256h-42.678857V633.892571H262.107429v-554.642285h554.642285V164.571429H859.428571v-128H219.428571V676.571429h640v-128z"  horiz-adv-x="1024" />

    
    <glyph glyph-name="qianyuewancheng" unicode="&#58934;" d="M520.521143 298.678857l128 128 29.878857-29.878857-153.6-153.6-110.921143 110.921143 29.842286 29.878857 76.8-85.321143zM640 640v-42.678857h-213.321143v64c0 8.557714 0 12.8 4.242286 21.357714H298.678857v-640H768v640h-132.278857c4.278857-8.557714 4.278857-12.8 4.278857-21.357714V640z m-42.678857 0v21.321143c0 34.157714-29.842286 64-64 64-34.121143 0-64-29.842286-64-64V640h128zM448 725.321143c21.321143 25.6 51.2 42.678857 85.321143 42.678857 34.157714 0 64-17.078857 85.357714-42.678857h192V0H256V725.321143h192z"  horiz-adv-x="1024" />

    
    <glyph glyph-name="zhengzaigouda1" unicode="&#58935;" d="M597.321143 285.878857v140.8h256v-384h-256v183.442286l-64-64-106.642286 106.678857 29.842286 29.878857 76.8-76.8 64 64zM810.678857 384H640v-298.678857h170.678857V384z m-384 0H256v-298.678857h170.678857V384z m42.642286 0v-341.321143h-256v384h256V384z m384 213.321143c0-72.521143-55.442286-128-128-128-72.521143 0-128 55.478857-128 128 0 72.557714 55.478857 128 128 128 72.557714 0 128-55.442286 128-128z m-42.642286 0a85.577143 85.577143 0 0 1-85.357714 85.357714A85.577143 85.577143 0 0 1 640 597.321143a85.577143 85.577143 0 0 1 85.321143-85.321143 85.577143 85.577143 0 0 1 85.357714 85.321143z m-341.357714 0c0-72.521143-55.442286-128-128-128-72.521143 0-128 55.478857-128 128 0 72.557714 55.478857 128 128 128 72.557714 0 128-55.442286 128-128z m-42.642286 0a85.577143 85.577143 0 0 1-85.357714 85.357714A85.577143 85.577143 0 0 1 256 597.321143 85.577143 85.577143 0 0 1 341.321143 512a85.577143 85.577143 0 0 1 85.357714 85.321143z"  horiz-adv-x="1024" />

    
    <glyph glyph-name="yifawenjuan" unicode="&#58936;" d="M384 85.321143h311.478857a72.045714 72.045714 0 0 0-12.8 42.678857V640H256v-512c0-25.6 17.078857-42.678857 42.678857-42.678857H384zM213.321143 128V682.678857h512v-128h128V128A85.577143 85.577143 0 0 0 768 42.678857H298.678857A85.577143 85.577143 0 0 0 213.321143 128z m512 384V128c0-25.6 17.078857-42.678857 42.678857-42.678857S810.678857 102.4 810.678857 128V512h-85.357714z m-384 0h256v-42.678857h-256V512z m0-128h256v-42.678857h-256V384z m0-128H512v-42.678857H341.321143V256z"  horiz-adv-x="1024" />

    
    <glyph glyph-name="yifahetong1" unicode="&#58937;" d="M640 640v-42.678857h-213.321143v64c0 8.557714 0 12.8 4.242286 21.357714H298.678857v-640H768v640h-132.278857c4.278857-8.557714 4.278857-12.8 4.278857-21.357714V640z m-170.678857 0h128v21.321143c0 34.157714-29.842286 64-64 64-34.121143 0-64-29.842286-64-64V640z m-21.321143 85.321143c21.321143 25.6 51.2 42.678857 85.321143 42.678857 34.157714 0 64-17.078857 85.357714-42.678857h192V0H256V725.321143h192z m-21.321143-298.642286H640V384h-213.321143v42.678857z m0-85.357714H640v-42.642286h-213.321143v42.642286z m0-85.321143H640v-42.678857h-213.321143V256z"  horiz-adv-x="1024" />

    
    <glyph glyph-name="daichulixinkehu" unicode="&#58938;" d="M640 247.478857l-51.2 51.2h-106.678857l-55.442286-51.2v-76.8H640v76.8z m42.678857 17.042286V128H384v136.521143l76.8 76.8h140.8l81.078857-76.8z m-469.357714 204.8V682.678857h213.357714V640H256v-170.678857H213.321143z m0-213.321143H256v-170.678857h170.678857v-42.642286H213.321143V256z m640 213.321143h-42.642286V640H640V682.678857h213.321143v-213.357714z m0-213.321143v-213.321143H640v42.642286h170.678857V256h42.642286zM640 490.678857A105.618286 105.618286 0 0 0 533.321143 384a105.618286 105.618286 0 0 0-106.642286 106.678857 105.618286 105.618286 0 0 0 106.642286 106.642286 105.618286 105.618286 0 0 0 106.678857-106.642286z m-42.678857 0c0 34.121143-29.842286 64-64 64-34.121143 0-64-29.878857-64-64 0-34.157714 29.878857-64 64-64 34.157714 0 64 29.842286 64 64z"  horiz-adv-x="1024" />

    
    <glyph glyph-name="xinxizonglan1" unicode="&#58939;" d="M896 341.321143c-8.521143-183.442286-157.878857-328.521143-341.321143-341.321143H512c-183.478857 8.521143-328.521143 157.878857-341.321143 341.321143V384C179.2 567.478857 328.521143 712.521143 512 725.321143h42.678857C738.121143 716.8 883.2 567.478857 896 384v-42.678857z m-42.678857 0h-42.642286V384h42.642286C844.8 541.878857 716.8 669.878857 554.678857 682.678857V640H512V682.678857C354.121143 674.121143 226.121143 546.121143 213.321143 384H256v-42.678857H213.321143c8.557714-157.842286 136.557714-285.842286 298.678857-298.642286v42.642286h42.678857v-42.642286c157.842286 12.8 285.842286 140.8 298.642286 298.642286zM298.678857 567.478857l29.842286 29.842286 29.878857-29.842286-29.878857-29.878857-29.842286 29.878857zM704 162.121143l29.878857 29.878857 29.842286-29.878857-29.842286-29.842286-29.878857 29.842286z m29.878857 435.2l29.842286-29.842286-29.842286-29.878857-29.878857 29.878857 29.878857 29.842286zM328.521143 192l29.878857-29.878857-29.878857-29.842286-29.842286 29.842286 29.842286 29.878857z m354.157714 298.678857L576 294.4 486.4 384l196.278857 106.678857z"  horiz-adv-x="1024" />

    
    <glyph glyph-name="tianjiakehu1" unicode="&#58940;" d="M804.571429 384v85.321143h42.678857V384H932.571429v-42.678857h-85.321143V256H804.571429v85.321143h-85.321143V384H804.571429z m-85.321143-221.878857L625.371429 256H343.771429l-93.878858-93.878857v-76.8h469.357715v76.8z m42.642285 17.078857v-136.521143H207.250286V179.2l119.442285 119.478857h311.478858l123.721142-119.478857zM484.571429 725.321143c81.078857 0 149.321143-68.242286 149.321142-149.321143v-85.321143c0-81.078857-68.242286-149.357714-149.321142-149.357714S335.250286 409.6 335.250286 490.678857V576c0 81.078857 68.242286 149.321143 149.321143 149.321143z m0-42.642286a105.618286 105.618286 0 0 1-106.678858-106.678857v-85.321143A105.618286 105.618286 0 0 1 484.571429 384a105.618286 105.618286 0 0 1 106.678857 106.678857V576a105.618286 105.618286 0 0 1-106.678857 106.678857z"  horiz-adv-x="1024" />

    
    <glyph glyph-name="zongchulizhong" unicode="&#58941;" d="M341.321143 554.678857H768a105.618286 105.618286 0 0 0 106.678857-106.678857c0-12.8-4.278857-25.6-8.557714-38.4-17.042286-46.921143-51.2-68.278857-98.121143-68.278857H256c-34.121143 0-64-29.842286-64-64 0-34.121143 29.878857-64 64-64h533.321143l-42.642286-42.642286L640 64l-29.878857 29.878857 76.8 76.8H256a105.618286 105.618286 0 0 0-106.678857 106.642286C149.321143 337.078857 200.521143 384 256 384h512c34.121143 0 64 29.878857 64 64s-25.6 64-64 64H234.678857l29.842286 29.878857L384 661.321143l29.878857-29.842286-72.557714-76.8z"  horiz-adv-x="1024" />

    
    <glyph glyph-name="tianjiaxiaoshou1" unicode="&#58942;" d="M426.678857 85.321143l42.642286-42.642286H256v166.4l89.6 89.6h59.721143l34.157714-42.678857h-76.8l-64-64v-106.678857h128z m213.321143 0H768V192l-64 64h-72.521143l34.121143 42.678857h59.721143l89.6-89.6v-166.4H601.6l38.4 42.642286zM546.121143 230.4l51.2-123.721143-64-64-64 64 51.2 123.721143-51.2 68.278857h128l-51.2-68.278857z m179.2 302.921143a191.195429 191.195429 0 0 0-192-192 191.195429 191.195429 0 0 0-192 192 191.195429 191.195429 0 0 0 192 192 191.195429 191.195429 0 0 0 192-192z m-42.642286 0c0 81.078857-68.278857 149.357714-149.357714 149.357714-81.042286 0-149.321143-68.278857-149.321143-149.357714 0-81.042286 68.278857-149.321143 149.321143-149.321143 81.078857 0 149.357714 68.278857 149.357714 149.321143z"  horiz-adv-x="1024" />

    
    <glyph glyph-name="zongyiqianyue1" unicode="&#58943;" d="M597.321143 256V597.321143h-170.642286V128h170.642286v128z m42.678857 0V128h170.678857V512H640v-213.321143h170.678857V256H640z m170.678857 298.678857h42.642286v-469.357714H170.678857v384H384V640h256v-85.321143h170.678857zM384 256H213.321143v42.678857H384v128H213.321143V128H384v128z m213.321143 128v-42.678857h-170.642286V384h170.642286z"  horiz-adv-x="1024" />

    
    <glyph glyph-name="zongyeji1" unicode="&#58944;" d="M849.078857 162.121143L908.8 102.4l-29.878857-29.878857-59.721143 59.757714c-42.678857-25.6-98.121143-21.357714-132.278857 12.8-42.642286 42.642286-42.642286 110.921143 0 149.321143 42.678857 38.4 110.957714 42.678857 149.357714 0 34.121143-34.121143 38.4-89.6 12.8-132.278857zM896 384h-42.678857V597.321143h-640V128h384v-42.678857H170.678857V640H896v-256z m-298.678857-85.321143V256h-384v42.678857h384z m-384 170.642286h640v-42.642286h-640v42.642286zM256 554.678857h42.678857V512H256V554.678857z m85.321143 0H384V512H341.321143V554.678857zM256 384h42.678857v-42.678857H256V384z m85.321143 0H384v-42.678857H341.321143V384zM256 213.321143h42.678857v-42.642286H256v42.642286z m85.321143 0H384v-42.642286H341.321143v42.642286z m371.2-38.4c25.6-25.6 64-25.6 89.6 0 25.6 25.6 25.6 64 0 89.6-25.6 25.6-64 25.6-89.6 0-25.6-25.6-25.6-64 0-89.6z"  horiz-adv-x="1024" />

    
    <glyph glyph-name="diquyiqianyue1" unicode="&#58945;" d="M213.321143 682.678857h640v-640h-640v640zM256 640v-554.678857h554.678857V640H256z m149.321143-256c-34.121143 0-64 29.878857-64 64s29.878857 64 64 64c34.157714 0 64-29.878857 64-64S439.478857 384 405.321143 384zM512 512h213.321143v-42.678857H512V512z m0-85.321143h213.321143V384H512v42.678857z m-170.678857-85.357714h384v-42.642286h-384v42.642286z m0-85.321143h384v-42.678857h-384V256z"  horiz-adv-x="1024" />

    
    <glyph glyph-name="diquchulizhong" unicode="&#58946;" d="M512 384l-38.4-38.4-29.878857 29.878857 89.6 89.6 89.6-89.6-29.842286-29.878857-38.4 38.4v-213.321143h298.642286V128H512v256z m-213.321143-341.321143h554.642286V0h-640v42.678857H256v640H213.321143V725.321143h640v-42.642286h-42.642286V256H768V682.678857H298.678857v-640z"  horiz-adv-x="1024" />

    
    <glyph glyph-name="daifenpeikehu1" unicode="&#58947;" d="M768 162.121143L674.121143 256h-281.6l-93.842286-93.878857v-76.8H768v76.8z m42.678857 17.078857v-136.521143H256V179.2l119.478857 119.478857h311.442286l123.757714-119.478857z m-85.357714 354.121143a191.195429 191.195429 0 0 0-192-192 191.195429 191.195429 0 0 0-192 192 191.195429 191.195429 0 0 0 192 192 191.195429 191.195429 0 0 0 192-192z m-42.642286 0c0 81.078857-68.278857 149.357714-149.357714 149.357714-81.042286 0-149.321143-68.278857-149.321143-149.357714 0-81.042286 68.278857-149.321143 149.321143-149.321143 81.078857 0 149.357714 68.278857 149.357714 149.321143z"  horiz-adv-x="1024" />

    
    <glyph glyph-name="yifenpeikehu1" unicode="&#58948;" d="M695.478857 102.4l119.442286 119.478857 29.878857-29.878857-149.321143-149.321143-4.278857 4.242286-89.6 89.6 29.878857 29.878857 64-64z m-140.8-17.078857v-42.642286H213.321143V179.2L332.8 298.678857h311.478857l46.921143-46.957714-29.878857-29.842286-29.842286 34.121143h-281.6L256 162.121143v-76.8h298.678857z m128 448a191.195429 191.195429 0 0 0-192-192 191.195429 191.195429 0 0 0-192 192 191.195429 191.195429 0 0 0 192 192 191.195429 191.195429 0 0 0 192-192z m-42.678857 0c0 81.078857-68.278857 149.357714-149.321143 149.357714-81.078857 0-149.357714-68.278857-149.357714-149.357714C341.321143 452.278857 409.6 384 490.678857 384c81.042286 0 149.321143 68.278857 149.321143 149.321143z"  horiz-adv-x="1024" />

    
    <glyph glyph-name="diquyeji1" unicode="&#58949;" d="M550.4 0h-17.078857a362.349714 362.349714 0 0 0-362.642286 362.678857 362.349714 362.349714 0 0 0 362.642286 362.642286h21.357714c192-12.8 341.321143-170.642286 341.321143-362.642286 0-174.957714-123.721143-320-290.121143-354.157714-17.078857-4.242286-38.4-8.521143-55.478857-8.521143z m-34.121143 42.678857v145.042286l-59.757714 81.078857 123.757714 123.721143L640 332.8h115.2l76.8-76.8v-8.521143c12.8 38.4 21.321143 76.8 21.321143 119.442286 0 166.4-128 302.957714-290.121143 320l-89.6-89.6L533.321143 537.6v-110.921143L435.2 328.521143l-187.721143 179.2a329.984 329.984 0 0 1-34.157714-145.042286c0-170.678857 132.278857-311.478857 302.957714-320zM366.921143 635.721143c-38.4-25.6-68.242286-51.2-93.842286-89.6L435.2 384l55.478857 55.478857v76.8l-76.8 76.8 12.8 12.8L499.2 678.4c-46.921143-4.278857-89.6-17.078857-132.278857-42.678857z m192-430.921143v-162.121143a359.826286 359.826286 0 0 1 136.557714 42.642286c38.4 21.357714 68.242286 51.2 93.842286 85.357714v68.242286l-51.2 51.2h-115.2L580.278857 332.8l-64-64 42.642286-64z"  horiz-adv-x="1024" />

    
    <glyph glyph-name="dangyueqianyuedanshu1" unicode="&#58950;" d="M512 384m-512 0a512 512 0 1 1 1024 0 512 512 0 1 1-1024 0ZM512 278.64l-99.552 96.24 23.232 23.216 73.008-72.992 139.36 139.36 23.248-23.216L512 278.64z m-132.736 308.624H677.92v66.368h33.184v-66.368h99.568V155.84h-564.16V587.264h99.568v66.368h33.184v-66.368zM279.68 554.08v-365.04h497.792V554.08H279.68z"  horiz-adv-x="1024" />

    
    <glyph glyph-name="dangyueqianyuee1" unicode="&#58951;" d="M512 384m-512 0a512 512 0 1 1 1024 0 512 512 0 1 1-1024 0ZM312.896 151.696h464.592v-33.184H279.68V616.32h33.2V151.68z m400 68.752H679.68v331.84h33.2v-331.84z m-96 2.368H583.68V488.304h33.2v-265.488z m-112 2.368H471.68V424.32h33.2v-199.12z m-96-13.632H375.68V344.32h33.2v-132.752z"  horiz-adv-x="1024" />

    
    <glyph glyph-name="dangyuediquqianyuezonge" unicode="&#58952;" d="M512 384m-512 0a512 512 0 1 1 1024 0 512 512 0 1 1-1024 0ZM711.104 118.512v66.384h-66.368l33.184 33.184h66.384v-132.752H312.896V218.08h66.368l33.184-33.184H346.08v-66.384h365.024z m-46.448 225.664c29.856 33.184 46.448 76.32 46.448 122.784 0 99.552-82.96 182.528-182.512 182.528S346.08 566.512 346.08 466.96c0-46.464 16.592-89.6 46.448-122.784l136.064-136.064 136.064 136.064z m13.28-33.184l-146.032-146.016-152.64 146.016c-39.84 39.824-66.368 92.912-66.368 155.968a215.28 215.28 0 0 0 215.696 215.712 215.28 215.28 0 0 0 215.712-215.712c0-56.416-19.92-106.192-56.416-146.016l-9.968-9.952zM528.576 384c-46.464 0-82.96 36.496-82.96 82.96 0 46.464 36.496 82.96 82.96 82.96 46.464 0 82.96-36.496 82.96-82.96 0-46.464-36.496-82.96-82.96-82.96z m0 33.184c26.56 0 49.776 23.232 49.776 49.776 0 26.56-23.232 49.776-49.776 49.776-26.56 0-49.776-23.232-49.776-49.76 0-26.56 23.232-49.792 49.776-49.792z"  horiz-adv-x="1024" />

    
    <glyph glyph-name="dangyueqianyueshuai1" unicode="&#58953;" d="M512 384m-512 0a512 512 0 1 1 1024 0 512 512 0 1 1-1024 0ZM279.696 616.304V151.68H744.32v-33.184H246.512V616.32h33.184z m76.32-99.568l69.696-69.68 16.592 16.592 19.92 26.544 142.688-142.688 116.16 116.144 23.232-23.232-139.392-139.376-142.688 139.36-39.824-39.808-89.6 92.912 23.232 23.232z"  horiz-adv-x="1024" />

    
    <glyph glyph-name="sousuo" unicode="&#58954;" d="M490.6496 85.3504c-174.8992 0-320 145.0496-320 320 0 174.8992 145.1008 320 320 320 174.9504 0 320-145.1008 320-320 0-174.9504-145.0496-320-320-320z m0 42.6496c153.6 0 277.3504 123.7504 277.3504 277.3504s-123.7504 277.2992-277.3504 277.2992-277.2992-123.6992-277.2992-277.2992c0-153.6 123.6992-277.3504 277.2992-277.3504z m264.5504 42.6496l119.4496-119.4496-29.8496-29.8496-119.4496 119.4496 29.8496 29.8496z"  horiz-adv-x="1024" />

    
    <glyph glyph-name="kehuxiangqing" unicode="&#58955;" d="M444.964571 249.892571a85.577143 85.577143 0 0 1-85.357714 85.357715A85.577143 85.577143 0 0 1 274.285714 249.892571H231.606857c0 72.557714 55.478857 128 128 128 72.557714 0 128-55.442286 128-128h-42.642286zM871.606857 676.571429v-554.678858H146.285714V676.571429h725.321143zM188.964571 633.892571V164.571429h640V633.892571h-640z m597.321143-128v-42.642285h-256v42.642285h256z m0-85.321142v-42.678858h-256V420.571429h256z m-42.678857-85.321143V292.571429H530.285714v42.678857h213.321143z m-384 42.642285A85.577143 85.577143 0 0 0 274.285714 463.250286 85.577143 85.577143 0 0 0 359.606857 548.571429a85.577143 85.577143 0 0 0 85.357714-85.321143 85.577143 85.577143 0 0 0-85.357714-85.357715z m0 42.678858c25.6 0 42.678857 17.078857 42.678857 42.678857s-17.078857 42.642286-42.678857 42.642285-42.642286-17.042286-42.642286-42.642285S334.006857 420.571429 359.606857 420.571429z"  horiz-adv-x="1024" />

    
    <glyph glyph-name="zhedie" unicode="&#58956;" d="M512 384m-512 0a512 512 0 1 1 1024 0 512 512 0 1 1-1024 0ZM523.849143 196.278857l258.852571 258.816 23.222857-23.222857-282.075428-282.075429-282.075429 282.075429 23.222857 23.222857z"  horiz-adv-x="1024" />

    
    <glyph glyph-name="bianji" unicode="&#58957;" d="M512 384m-512 0a512 512 0 1 1 1024 0 512 512 0 1 1-1024 0ZM587.373714 601.124571l189.147429-189.147428-288.694857-288.731429H298.678857v189.184l288.694857 288.694857z m0-46.445714l-255.524571-258.852571v-139.373715h139.373714l255.524572 255.524572-139.337143 142.701714z m56.429715 99.547429l185.819428-189.147429-23.222857-23.259428-189.147429 189.184 26.550858 23.222857z"  horiz-adv-x="1024" />

    
    <glyph glyph-name="bangdingchenggong" unicode="&#58958;" d="M507.7248 290.1248l179.2 179.2L716.8 439.4752 520.5248 243.2l-12.8-12.8-145.0496 145.0752 29.8496 29.8496 115.2-115.2z m25.6-290.1248C332.8 0 170.6752 162.1248 170.6752 362.6752 170.6752 563.2 332.8 725.3248 533.3248 725.3248 733.8752 725.3248 896 563.2 896 362.6752 896 162.1248 733.8752 0 533.3248 0z m0 42.6752c174.9504 0 320 145.0496 320 320 0 174.9248-145.0496 320-320 320-174.9248 0-320-145.0752-320-320 0-174.9504 145.0752-320 320-320z"  horiz-adv-x="1024" />

    
    <glyph glyph-name="guanbichuangkou" unicode="&#58959;" d="M512 384m-512 0a512 512 0 1 1 1024 0 512 512 0 1 1-1024 0ZM526.116571 357.961143l204.214858-204.178286-21.357715-21.357714-204.178285 204.214857L300.617143 132.388571l-21.357714 21.357715 204.214857 204.178285L279.259429 562.102857l21.357714 21.357714 204.178286-204.214857 204.178285 204.214857 21.357715-21.357714z"  horiz-adv-x="1024" />

    
    <glyph glyph-name="zhengque" unicode="&#58960;" d="M422.4 93.866667L128 384l29.866667 29.866667 264.533333-264.533334L908.8 640l29.866667-29.866667z"  horiz-adv-x="1024" />

    
    <glyph glyph-name="xianshimima" unicode="&#58961;" d="M512 597.317818c-162.117818 0-285.882182-68.235636-375.482182-213.317818 89.6-145.082182 213.364364-213.317818 375.482182-213.317818 162.117818 0 285.882182 68.235636 375.482182 213.317818C797.882182 529.082182 674.117818 597.317818 512 597.317818zM512 128c-183.482182 0-328.517818 85.317818-426.682182 256C183.482182 554.682182 328.517818 640 512 640s328.517818-85.317818 426.682182-256c-98.164364-170.682182-243.2-256-426.682182-256z m0 170.682182A85.597091 85.597091 0 0 1 597.317818 384 85.597091 85.597091 0 0 1 512 469.317818 85.597091 85.597091 0 0 1 426.682182 384c0-46.917818 38.4-85.317818 85.317818-85.317818z m0-42.682182c-72.517818 0-128 55.482182-128 128S439.482182 512 512 512s128-55.482182 128-128-55.482182-128-128-128z"  horiz-adv-x="1024" />

    
    <glyph glyph-name="cuowu" unicode="&#58962;" d="M558.933333 366.933333l285.866667-285.866666-29.866667-29.866667-285.866666 285.866667-285.866667-285.866667-29.866667 29.866667 285.866667 285.866666L213.333333 652.8l29.866667 29.866667 285.866667-285.866667L814.933333 682.666667l29.866667-29.866667z"  horiz-adv-x="1024" />

    
    <glyph glyph-name="yincangmima" unicode="&#58963;" d="M332.8 166.4l34.117818 34.117818C409.6 187.717818 460.8 179.2 512 179.2c162.117818 0 285.882182 68.282182 375.482182 213.317818-46.964364 72.564364-102.4 128-166.4 162.164364l29.835636 29.835636c72.564364-42.635636 132.282182-106.635636 183.482182-192-98.117818-170.635636-243.2-256-426.682182-256-59.717818-4.235636-119.435636 8.564364-174.917818 29.882182zM217.6 230.4c-51.2 38.4-93.882182 93.882182-132.282182 157.882182 98.164364 170.635636 243.2 256 426.682182 256 38.4 0 76.8-4.282182 110.917818-12.8l-34.117818-34.164364c-25.6 4.282182-46.917818 4.282182-76.8 4.282182-162.117818 0-285.882182-68.282182-375.482182-213.317818 34.164364-51.2 72.564364-93.882182 115.2-128l-34.117818-29.882182z m230.4 46.917818l29.882182 29.882182c8.517818-4.282182 21.317818-4.282182 29.835636-4.282182a85.597091 85.597091 0 0 1 85.364364 85.364364c0 12.8 0 21.317818-4.282182 29.835636l29.882182 29.882182c12.8-17.082182 17.035636-38.4 17.035636-64 0-72.517818-55.435636-128-128-128-17.035636 4.282182-38.4 12.8-59.717818 21.317818zM384 396.8c4.282182 68.282182 55.482182 119.482182 123.717818 123.717818 0-4.235636-123.717818-123.717818-123.717818-123.717818z m349.882182 285.882182l29.835636-29.882182-512-512-34.117818 29.882182 516.282182 512z"  horiz-adv-x="1024" />

    
    <glyph glyph-name="weixinsaomadenglu" unicode="&#58964;" d="M579.29728 384.57344c-11.6736 0-23.32672-10.83392-23.32672-24.1664 0-10.81344 11.6736-21.64736 23.3472-21.64736 17.48992 0 29.98272 10.83392 29.98272 21.64736 0 13.33248-12.4928 24.1664-30.0032 24.1664z m-76.63616 112.45568c18.3296 0 29.98272 11.6736 29.98272 29.16352 0 18.3296-11.65312 29.14304-29.98272 29.14304-17.48992 0-34.16064-10.81344-34.16064-29.14304 0-17.5104 16.67072-29.16352 34.16064-29.16352zM511.83616 895.44704C229.43744 895.44704 0.53248 666.5216 0.53248 384.14336s228.90496-511.2832 511.30368-511.2832c282.35776 0 511.2832 228.90496 511.2832 511.2832S794.2144 895.44704 511.83616 895.44704z m-96.64512-640.8192c-30.8224 0-53.30944 4.97664-82.47296 13.312l-84.13184-42.47552 24.1664 71.63904C213.6064 338.7392 178.5856 391.22944 178.5856 455.3728c0 113.29536 106.63936 199.92576 236.58496 199.92576 114.95424 0 217.43616-68.3008 237.42464-164.94592a115.56864 115.56864 0 0 1-22.50752 2.49856c-113.27488 0-200.74496-84.95104-200.74496-187.43296 0-17.48992 2.49856-33.30048 6.656-49.9712-6.656-0.8192-14.15168-0.8192-20.82816-0.8192z m347.38176-81.65376l16.65024-59.96544-63.30368 35.81952c-24.1664-4.99712-47.49312-12.4928-71.63904-12.4928-111.616 0-199.92576 76.63616-199.92576 171.60192 0 94.94528 88.28928 171.60192 199.92576 171.60192 105.79968 0 200.76544-76.65664 200.76544-171.6224 0-53.30944-35.84-100.78208-82.47296-134.94272zM337.7152 555.33568c-17.48992 0-35.81952-10.81344-35.81952-29.14304 0-17.5104 18.3296-29.16352 35.84-29.16352 16.65024 0 29.98272 11.6736 29.98272 29.16352 0 18.30912-13.33248 29.14304-30.0032 29.14304z m372.36736-170.76224c-12.4928 0-23.32672-10.83392-23.32672-24.1664 0-10.81344 10.8544-21.64736 23.3472-21.64736 16.65024 0 29.14304 10.83392 29.14304 21.64736 0 13.33248-12.4928 24.1664-29.16352 24.1664z"  horiz-adv-x="1024" />

    
    <glyph glyph-name="danxuankuang_xuanzhong" unicode="&#58965;" d="M512 896c277.44 0 503.36-221.184 511.744-496.064L1024 384c0-277.44-221.184-503.36-496.064-511.744L512-128c-282.752 0-512 229.76-512 512C0 661.44 221.184 887.36 496.064 895.744L512 896z m0.96-64l-14.912-0.192A448.384 448.384 0 0 1 64 384c0-241.92 192.512-439.616 431.68-447.744l15.36-0.256 14.912 0.192c236.032 7.232 425.792 197.44 433.792 431.488l0.256 15.36-0.192 14.912A448.448 448.448 0 0 1 527.36 831.744L512.96 832zM512 640a256 256 0 1 0 0-512 256 256 0 0 0 0 512z"  horiz-adv-x="1024" />

    
    <glyph glyph-name="xialacaidan_jiantou" unicode="&#58966;" d="M517.802667 255.232l-192 192 29.866666 29.866667 162.133334-162.133334 162.133333 162.133334 29.866667-29.866667z"  horiz-adv-x="1024" />

    
    <glyph glyph-name="rilifanye_wangqian" unicode="&#58967;" d="M0 896m186.181818 0l651.636364 0q186.181818 0 186.181818-186.181818l0-651.636364q0-186.181818-186.181818-186.181818l-651.636364 0q-186.181818 0-186.181818 186.181818l0 651.636364q0 186.181818 186.181818 186.181818ZM645.026909 594.944l-221.416727-206.522182 206.475636-221.416727-67.397818-62.836364-269.358545 288.814546 288.86109 269.358545z"  horiz-adv-x="1024" />

    
    <glyph glyph-name="danxuankuang_weixuanzhong" unicode="&#58968;" d="M512 896c277.44 0 503.36-221.184 511.744-496.064L1024 384c0-277.44-221.184-503.36-496.064-511.744L512-128c-282.752 0-512 229.76-512 512C0 661.44 221.184 887.36 496.064 895.744L512 896z m0.96-64l-14.912-0.192A448.384 448.384 0 0 1 64 384c0-241.92 192.512-439.616 431.68-447.744l15.36-0.256 14.912 0.192c236.032 7.232 425.792 197.44 433.792 431.488l0.256 15.36-0.192 14.912A448.448 448.448 0 0 1 527.36 831.744L512.96 832z"  horiz-adv-x="1024" />

    


  </font>
</defs>
</svg>
